<svg xmlns="http://www.w3.org/2000/svg" width="19" height="19" viewBox="0 0 19 19" fill="none">
  <g clipPath="url(#clip0_201_4230)">
    <path d="M7.28245 12.9461C7.28245 13.2302 7.23738 13.5213 7.14723 13.8196C7.05709 14.1179 6.90205 14.3878 6.68209 14.6293C6.46214 14.8708 6.20072 14.9914 5.89784 14.9914C5.59495 14.9914 5.33353 14.8708 5.11358 14.6293C4.89363 14.3878 4.73858 14.1179 4.64844 13.8196C4.55829 13.5213 4.51322 13.2302 4.51322 12.9461C4.51322 12.662 4.55829 12.3707 4.64844 12.0724C4.73858 11.7742 4.89363 11.5043 5.11358 11.2628C5.33353 11.0213 5.59495 10.9006 5.89784 10.9006C6.20072 10.9006 6.46214 11.0213 6.68209 11.2628C6.90205 11.5043 7.05709 11.7742 7.14723 12.0724C7.23738 12.3707 7.28245 12.662 7.28245 12.9461ZM14.2055 12.9461C14.2055 13.2302 14.1604 13.5213 14.0703 13.8196C13.9802 14.1179 13.8251 14.3878 13.6052 14.6293C13.3852 14.8708 13.1238 14.9914 12.8209 14.9914C12.518 14.9914 12.2566 14.8708 12.0366 14.6293C11.8167 14.3878 11.6616 14.1179 11.5715 13.8196C11.4813 13.5213 11.4363 13.2302 11.4363 12.9461C11.4363 12.662 11.4813 12.3707 11.5715 12.0724C11.6616 11.7742 11.8167 11.5043 12.0366 11.2628C12.2566 11.0213 12.518 10.9006 12.8209 10.9006C13.1238 10.9006 13.3852 11.0213 13.6052 11.2628C13.8251 11.5043 13.9802 11.7742 14.0703 12.0724C14.1604 12.3707 14.2055 12.662 14.2055 12.9461ZM15.9363 12.9461C15.9363 12.0938 15.6875 11.3693 15.1899 10.7727C14.6923 10.1761 14.018 9.87787 13.1671 9.87787C12.8714 9.87787 12.1683 9.95242 11.0577 10.1016C10.5456 10.1797 9.97955 10.2188 9.35938 10.2188C8.7392 10.2188 8.1731 10.1797 7.66106 10.1016C6.56491 9.95242 5.86178 9.87787 5.55168 9.87787C4.70072 9.87787 4.02644 10.1761 3.52884 10.7727C3.03125 11.3693 2.78245 12.0938 2.78245 12.9461C2.78245 13.571 2.89784 14.1161 3.12861 14.5813C3.35938 15.0465 3.65144 15.4123 4.00481 15.6786C4.35817 15.9449 4.79808 16.158 5.32452 16.3178C5.85097 16.4776 6.35577 16.5823 6.83894 16.6321C7.32211 16.6818 7.85938 16.7067 8.45075 16.7067H10.268C10.8594 16.7067 11.3966 16.6818 11.8798 16.6321C12.363 16.5823 12.8678 16.4776 13.3942 16.3178C13.9207 16.158 14.3606 15.9449 14.7139 15.6786C15.0673 15.4123 15.3594 15.0465 15.5901 14.5813C15.8209 14.1161 15.9363 13.571 15.9363 12.9461ZM18.3594 11.0711C18.3594 12.5412 18.1394 13.7166 17.6995 14.5973C17.4255 15.1442 17.0451 15.6165 16.5583 16.0142C16.0715 16.412 15.5631 16.7174 15.033 16.9304C14.503 17.1435 13.8901 17.3122 13.1941 17.4365C12.4982 17.5607 11.8798 17.6389 11.3389 17.6708C10.7981 17.7028 10.1959 17.7188 9.53247 17.7188C8.96997 17.7188 8.45795 17.7081 7.9964 17.6868C7.53486 17.6655 7.003 17.6211 6.40084 17.5536C5.79868 17.4862 5.2488 17.3796 4.7512 17.234C4.25361 17.0885 3.75961 16.9055 3.26923 16.6854C2.77885 16.4652 2.34255 16.1776 1.96034 15.8224C1.57812 15.4673 1.26803 15.059 1.03005 14.5973C0.582933 13.7237 0.359375 12.5483 0.359375 11.0711C0.359375 9.38775 0.84976 7.9815 1.83053 6.85227C1.63582 6.26989 1.53847 5.66619 1.53847 5.04119C1.53847 4.21733 1.72236 3.44318 2.09014 2.71875C2.86899 2.71875 3.55409 2.85902 4.14543 3.13956C4.73678 3.4201 5.41827 3.85867 6.18991 4.45526C7.25 4.20668 8.3642 4.08239 9.53247 4.08239C10.5997 4.08239 11.6094 4.19602 12.5613 4.4233C13.3185 3.84091 13.9928 3.41123 14.5841 3.13424C15.1755 2.85725 15.857 2.71875 16.6286 2.71875C16.9964 3.44318 17.1803 4.21733 17.1803 5.04119C17.1803 5.65909 17.083 6.25568 16.8883 6.83096C17.869 7.96733 18.3594 9.3807 18.3594 11.0711Z" fill="#8E9CA1"/>
  </g>
  <defs>
    <clipPath id="clip0_201_4230">
      <rect width="18" height="18" fill="white" transform="translate(0.359375 0.46875)"/>
    </clipPath>
  </defs>
</svg>