<svg xmlns="http://www.w3.org/2000/svg" width="19" height="19" viewBox="0 0 19 19" fill="none">
  <g clipPath="url(#clip0_201_4237)">
    <path d="M4.68778 5.20624H0.896973V18.4686H4.68778V5.20624Z" fill="#8E9CA1"/>
    <path d="M13.6844 5.20624C11.042 5.20624 10.5848 6.17104 10.3688 7.09984V5.20624H6.58154V18.4686H10.3688V10.8907C10.3688 9.66307 11.0348 8.99708 12.2624 8.99708C13.49 8.99708 14.156 9.64867 14.156 10.8907V18.4686H17.9468V11.8374C17.9468 8.04668 17.4536 5.20624 13.6844 5.20624Z" fill="#8E9CA1"/>
    <path d="M2.79058 4.25595C3.83638 4.25595 4.68418 3.40816 4.68418 2.36235C4.68418 1.31654 3.83638 0.46875 2.79058 0.46875C1.74477 0.46875 0.896973 1.31654 0.896973 2.36235C0.896973 3.40816 1.74477 4.25595 2.79058 4.25595Z" fill="#8E9CA1"/>
  </g>
  <defs>
    <clipPath id="clip0_201_4237">
      <rect width="18" height="18" fill="white" transform="translate(0.421875 0.46875)"/>
    </clipPath>
  </defs>
</svg>