<svg xmlns="http://www.w3.org/2000/svg" width="19" height="19" viewBox="0 0 19 19" fill="none">
  <g clipPath="url(#clip0_201_4233)">
    <path d="M6.04982 16.7803C12.843 16.7803 16.5582 11.1535 16.5582 6.27192C16.5582 6.11352 16.5582 5.95152 16.5582 5.79312C17.2771 5.2705 17.8975 4.62449 18.3906 3.88512C17.7167 4.18319 17.002 4.37856 16.2702 4.46472C17.041 4.00363 17.618 3.27824 17.8938 2.42352C17.1682 2.8539 16.3744 3.15706 15.5466 3.31992C14.9895 2.72857 14.253 2.33722 13.4512 2.20636C12.6493 2.0755 11.8266 2.21242 11.1104 2.59594C10.3941 2.97948 9.8242 3.58826 9.48857 4.3282C9.15302 5.06812 9.07053 5.898 9.25383 6.68952C7.78562 6.61581 6.34932 6.23413 5.0382 5.56927C3.72708 4.90441 2.57046 3.97123 1.64342 2.83032C1.17209 3.64343 1.02811 4.60553 1.24076 5.52101C1.45341 6.43648 2.00673 7.23661 2.78822 7.75872C2.20104 7.74532 1.62569 7.59098 1.11062 7.30872V7.35552C1.11039 8.20845 1.40535 9.03517 1.94541 9.69532C2.48547 10.3555 3.23736 10.8084 4.07342 10.9771C3.53007 11.1258 2.95988 11.1479 2.40663 11.0419C2.64278 11.7752 3.1021 12.4165 3.72042 12.876C4.33875 13.3355 5.08518 13.5904 5.85542 13.6051C4.54777 14.6329 2.93229 15.1909 1.26903 15.1891C0.97521 15.1847 0.681907 15.163 0.390625 15.1243C2.07871 16.2086 4.04349 16.7836 6.04982 16.7803Z" fill="#8E9CA1"/>
  </g>
  <defs>
    <clipPath id="clip0_201_4233">
      <rect width="18" height="18" fill="white" transform="translate(0.390625 0.46875)"/>
    </clipPath>
  </defs>
</svg>