<svg xmlns="http://www.w3.org/2000/svg" width="140" height="26" viewBox="0 0 140 26" fill="none">
  <g clipPath="url(#clip0_201_7261)">
    <path fill-rule="evenodd" clip-rule="evenodd" d="M41.1646 10.8846C39.6187 11.0778 38.6527 11.5287 38.0086 12.173C37.4931 12.6881 37.2357 13.3321 37.2357 13.9762C37.2357 15.1356 38.073 15.9729 39.1035 15.9729C39.7474 15.9729 40.3915 15.715 40.7137 15.3289C40.8424 15.1999 40.9713 14.9424 40.9713 14.6848L41.1645 10.8846H41.1646ZM43.8052 17.7761C42.5171 17.7761 41.3575 16.9389 41.0357 15.651C40.3915 16.8101 39.1679 17.7761 37.5577 17.7761C35.7543 17.7761 34.2085 16.3592 34.2085 14.5559C34.2085 12.0439 36.5917 10.2407 41.1 10.1762V9.53216C41.1645 7.72884 40.134 6.63367 38.3305 6.63367C37.0421 6.63367 35.6899 7.47129 34.7882 8.56595C34.7239 8.63044 34.3375 8.24418 34.3375 8.17957C35.4966 5.86117 37.6221 4.57293 39.8119 4.57293C42.3235 4.57293 44.1271 6.37638 44.0626 9.40333L43.8698 14.4272C43.8698 15.5866 44.3849 16.1017 44.9645 16.1017C45.6084 16.1017 46.0593 15.5864 46.3169 14.8776C46.3169 14.8134 46.7032 15.0066 46.7032 15.071C46.7032 16.8101 45.4152 17.7761 43.805 17.7761H43.8052ZM59.8423 17.3253H56.4289C56.3644 17.3253 56.3644 16.6814 56.4289 16.6814C57.8458 16.488 58.039 16.3592 58.039 13.5898V9.72548C58.039 7.98638 57.0086 6.76276 55.5271 6.76276C54.4967 6.76276 53.5305 7.27798 53.0796 7.92216C52.7576 8.30867 52.5644 9.01707 52.5644 9.9188V13.5898C52.5644 16.3593 52.8862 16.488 54.3035 16.6814C54.3035 16.6814 54.3677 17.3253 54.3035 17.3253H47.7336C47.6694 17.3253 47.6694 16.6814 47.6694 16.6814C49.2151 16.4234 49.4085 16.3592 49.4085 13.5898V8.88811C49.4085 6.0541 49.0863 5.9254 47.4115 5.66784C47.2829 5.66784 47.3473 5.02366 47.4115 5.02366H52.3066V7.85768H52.3712C53.4661 5.79642 55.1408 4.5728 57.2016 4.5728C59.5204 4.5728 61.3237 6.37626 61.3237 9.33897V13.5254C61.3237 16.295 61.5812 16.4237 63.1271 16.617C63.2558 16.617 63.1914 17.2609 63.1271 17.2609C62.161 17.3253 60.7439 17.3253 59.8422 17.3253H59.8423ZM70.2118 17.7761C66.3475 17.7761 63.8356 14.7491 63.8356 11.2711C63.8356 7.53552 66.3476 4.57267 70.4697 4.57267C72.4019 4.57267 73.3678 5.21685 73.9477 5.21685C74.2052 5.21685 74.4629 5.02366 74.5916 4.70163C74.5916 4.63715 75.3646 4.63715 75.3646 4.70163V9.33884C75.3646 9.40333 74.5917 9.40333 74.5917 9.33884C73.5613 7.21337 72.1443 5.41017 70.47 5.41017C68.4086 5.41017 67.185 7.60001 67.185 10.6269C67.185 13.8472 68.8595 15.9729 71.1783 15.9729C72.7239 15.9729 74.4631 14.8779 75.1714 13.6541C75.2358 13.5252 75.7511 13.7831 75.7511 13.9121C74.914 16.1017 72.7239 17.7761 70.212 17.7761H70.2118ZM85.8628 9.59652V8.69479C85.8628 6.69815 84.8967 5.53888 83.6729 5.53888C82.127 5.53888 80.9679 7.21337 80.7101 9.59652H85.8629H85.8628ZM80.7101 11.0777C80.7101 13.8472 82.2561 15.9727 84.8966 15.9727C86.4424 15.9727 87.9879 14.9423 88.8255 13.6539C88.8255 13.5897 89.3406 13.7829 89.3406 13.9118C88.6324 16.1017 86.3135 17.776 83.7373 17.776C79.6798 17.776 77.2968 14.8133 77.2968 11.271C77.2968 7.72871 79.8086 4.5728 84.0595 4.5728C87.2797 4.5728 89.4053 6.69815 89.5985 9.59652V10.4982H80.8392C80.7102 10.6269 80.7102 10.949 80.7102 11.0779L80.7101 11.0777ZM96.0392 17.7761C94.0424 17.7761 92.3034 17.2612 91.7239 16.8744C91.6595 16.8101 91.4663 15.1356 91.4663 13.461C91.4663 13.3967 92.2391 13.332 92.2391 13.461C93.2695 15.7151 94.7509 17.0032 96.3612 17.0032C97.7137 17.0032 98.6798 16.295 98.6798 15.1999C98.6798 13.9119 97.134 13.3321 95.5884 12.6237C93.7204 11.9153 91.5953 10.9491 91.5953 8.56621C91.5953 6.69815 93.2054 4.76599 96.2325 4.76599C97.5209 4.76599 98.3579 5.28121 98.9377 5.28121C99.1952 5.28121 99.4528 5.08814 99.6458 4.76599C99.6458 4.70163 100.419 4.70163 100.419 4.76599V9.01707C100.419 9.08143 99.6458 9.08143 99.6458 9.01707C98.6154 7.08479 97.3918 5.7322 95.9103 5.7322C94.5576 5.7322 93.9133 6.63392 93.9133 7.34259C93.9133 8.63056 95.3949 9.14578 96.9405 9.78996C98.8083 10.5627 100.999 11.5291 100.999 13.9763C100.999 16.0372 99.0663 17.776 96.039 17.776L96.0392 17.7761ZM102.416 6.37612C102.223 6.37612 102.158 5.86078 102.351 5.73207C103.704 4.50819 105.958 2.44732 107.182 1.15908C107.246 1.0946 107.697 1.15908 107.697 1.28805V5.08776H112.077C112.206 5.08776 112.206 6.31151 112.077 6.31151H107.697V13.4607C107.697 15.0708 108.663 15.7792 109.694 15.7792C110.467 15.7792 111.304 15.1354 111.691 14.3623C111.691 14.2981 112.206 14.5556 112.206 14.6202C111.691 16.3593 110.016 17.7115 108.148 17.7115C106.151 17.7115 104.541 16.4234 104.541 13.9116V6.37599H102.416V6.37612ZM122.769 8.43737C122.382 8.43737 121.416 7.27798 120.707 7.27798C120.385 7.27798 119.999 7.47117 119.677 7.79319C119.162 8.30841 118.711 9.53229 118.711 10.5627V13.6543C118.711 16.4882 119.162 16.5525 120.643 16.7456C120.643 16.7456 120.708 17.3895 120.643 17.3895H113.816C113.752 17.3895 113.752 16.7457 113.816 16.7457C115.362 16.488 115.555 16.4236 115.555 13.6544V8.95234C115.555 6.18281 115.233 5.98961 113.559 5.73207C113.43 5.73207 113.494 5.08789 113.559 5.08789H118.518V8.30816H118.647C118.776 7.92177 119.033 7.47091 119.226 7.02005C120.128 5.53862 121.223 4.6369 122.382 4.6369C123.477 4.6369 124.379 5.47427 124.379 6.37599C124.443 7.40643 123.091 8.43686 122.769 8.43686V8.43737ZM136.1 10.1117L131.914 20.8677C130.433 24.6677 129.08 25.4407 127.277 25.4407C126.246 25.4407 125.087 24.9253 125.087 24.6034C125.023 24.0881 125.731 22.2204 126.117 22.2204C126.246 22.2204 127.792 22.9286 128.565 22.9286C129.66 22.9286 130.368 22.2204 130.948 20.6745L131.721 18.6134C131.463 17.5829 128.371 10.8203 127.985 9.91842C127.212 8.11496 126.697 6.69815 126.182 6.1828C125.86 5.86065 125.538 5.73207 124.636 5.6031C124.572 5.6031 124.572 4.95893 124.636 4.95893C125.473 4.95893 127.212 5.02328 128.179 5.02328C129.145 5.02328 130.819 4.9588 131.656 4.9588C131.721 4.9588 131.721 5.60298 131.656 5.60298C129.724 5.86039 129.917 6.50446 130.948 9.08092L133.202 14.5554L135.006 9.85368C135.65 8.24354 135.972 7.27747 135.972 6.69777C135.972 5.9891 135.521 5.73156 134.168 5.66733C134.104 5.66733 134.104 4.95867 134.168 4.95867C135.07 4.95867 136.229 5.02302 137.002 5.02302C137.582 5.02302 138.162 4.95854 139.257 4.95854C139.321 4.95854 139.385 5.6672 139.257 5.6672C138.548 5.73143 138.226 5.92462 137.84 6.311C137.324 6.82635 136.938 7.85678 136.101 10.111L136.1 10.1117Z" fill="#9BA2B2"/>
    <path fill-rule="evenodd" clip-rule="evenodd" d="M19.5874 4.25096C17.3332 1.80345 15.0791 2.19009 14.6926 2.25432C14.8858 2.31867 15.0791 6.56963 17.4621 8.82382C19.0723 10.305 22.357 9.78977 22.357 9.78977C22.357 9.78977 21.7773 6.63398 19.5875 4.25096H19.5874ZM22.2928 12.5596C21.5841 12.5596 18.6859 12.8172 16.7537 15.2001C14.7571 17.7121 14.8214 19.7088 14.3706 20.1595C14.7571 20.2885 18.8147 20.6747 20.5537 18.0341C22.2282 15.5864 22.2928 12.9458 22.2928 12.5594V12.5596ZM4.64503 10.8202C5.09577 10.8848 6.64167 12.8815 9.41121 13.139C12.4383 13.4613 13.4687 11.9155 13.5333 11.9155C13.5333 11.7222 11.0858 9.08162 8.38077 9.08162C6.51271 9.14584 4.64503 10.8203 4.64503 10.8203V10.8202ZM15.6586 12.173C15.5942 12.2374 13.0825 15.5866 7.15689 14.6849C2.39071 13.912 0.651744 11.2712 0.32959 11.2068C0.716099 10.6915 4.323 7.79325 8.50922 7.85761C12.6315 7.98657 15.6584 10.3051 15.6584 10.3051H18.299C16.1738 9.66106 13.5976 8.50179 12.4382 5.92545C11.4077 3.54255 11.6009 2.12548 11.1501 0.128964C11.1501 0.128964 15.9161 -0.257545 19.5874 2.12548C22.9366 4.31531 24.8043 10.1119 24.8688 10.3051H26.9296L26.479 0L29.0552 0.0643543C28.6045 2.76953 29.1842 22.0917 29.0552 22.0917C28.7977 22.1559 26.6077 22.2845 26.4147 21.7694C26.4147 21.7694 26.9299 12.3016 26.9944 12.1083H24.9975C24.9975 12.2373 24.8043 17.5829 20.7468 20.4169C16.6889 23.2508 10.828 22.4134 10.828 22.4134C11.5367 21.3185 10.828 20.1592 12.8889 17.0033C15.2721 13.3965 18.428 12.1083 18.3637 12.1083C18.1705 12.1729 15.7232 12.1729 15.6586 12.1729" fill="#9BA2B2"/>
  </g>
  <defs>
    <clipPath id="clip0_201_7261">
      <rect width="139" height="26" fill="white" transform="translate(0.32959)"/>
    </clipPath>
  </defs>
</svg>