<svg xmlns="http://www.w3.org/2000/svg" width="201" height="30" viewBox="0 0 201 30" fill="none">
        <g clipPath="url(#clip0_201_7183)">
          <path
            d="M6.23247 15.9821V8.55219L3.9813 9.56536C3.9813 9.56536 3.40144 10.8487 3.50377 12.7062C3.57199 14.1584 4.3906 15.8807 5.03867 16.6238L6.23247 15.9821ZM12.8496 0.683284C13.3954 0.717056 14.2822 0.987234 14.9302 1.56136C15.6465 2.2368 15.783 3.24997 15.5441 4.19559C15.3395 5.00612 15.0667 5.44516 14.2139 6.01928C13.3612 6.59341 12.3038 6.55964 12.3038 6.55964V10.1395L14.0775 11.558L12.3038 12.9764V17.8733C12.3038 17.8733 14.0775 16.8601 15.169 14.6312C15.169 14.6312 15.2031 14.4961 15.3054 14.2935C15.4077 14.9014 15.3395 16.1172 14.6573 17.6706C14.1798 18.7852 13.2248 19.8997 12.0651 20.5751C9.98444 21.7233 8.41543 21.8247 6.70999 21.487C4.73169 21.0816 2.95803 20.0009 1.73011 18.0759C0.877395 16.725 0.502198 15.1716 0.536307 13.4829C0.604524 10.1733 3.09447 7.3364 5.95961 6.25569C6.30069 6.1206 6.43713 6.05306 6.94875 5.98551C6.70999 6.15437 6.47123 6.32324 6.13014 6.55964C5.20921 7.16753 4.42471 8.34957 4.08362 9.2614L9.64335 6.79604V14.4961L5.14099 16.725C5.65262 17.4343 7.22163 18.4812 8.51776 18.6501C10.7689 18.8865 12.0992 17.9071 12.0992 17.9071V12.9088L10.3596 11.4904L12.0992 10.0719V6.55964C11.1441 6.45832 9.98444 6.15437 9.30226 5.98551C8.34722 5.71533 5.00455 4.80348 4.49292 4.70217C3.9813 4.63463 3.33323 4.63463 2.92392 5.00612C2.54872 5.34384 2.27586 5.95174 2.4464 6.52587C2.54872 6.82982 2.75338 7.03245 2.92392 7.20131C2.92392 7.20131 2.71927 7.20131 2.37818 6.96491C1.76423 6.59341 1.2867 5.85043 1.21848 4.97235C1.15026 3.79032 1.6619 2.70961 2.65106 2.0004C3.50377 1.46004 4.45882 1.12232 5.58441 1.25741C7.22163 1.49382 9.4387 2.40566 11.3829 2.87847C12.1333 3.04734 12.7473 3.11488 13.2589 2.81093C13.4976 2.64207 13.941 2.16926 13.5999 1.56136C13.1907 0.852145 12.372 0.852145 11.6899 0.750829C12.2697 0.649512 12.4062 0.649512 12.8496 0.683284Z"
            fill="#9BA2B2"
          />
          <path
            d="M34.4735 14.057L31.9495 15.8807V9.76796L34.4735 14.057ZM34.4053 8.18066C34.4053 8.18066 32.6998 9.19383 31.5401 9.86927C30.3804 10.5447 28.8456 11.2877 28.8456 11.2877V18.3799L27.8223 19.1904L27.9588 19.3592L28.9478 18.5487L32.0859 21.3518L37.5433 17.0627L37.4068 16.8938L34.4053 19.2241L31.9153 16.9277V16.0833L36.8952 12.4697L34.4053 8.18066Z"
            fill="#9BA2B2"
          />
          <path
            d="M20.147 24.054C20.8633 24.2229 22.1254 24.3242 23.6603 23.5812C25.3316 22.7369 26.1843 20.9807 26.1843 19.1571L26.2526 16.5903V10.9505L27.344 10.1399L27.2076 9.97104L26.1161 10.7478L23.6603 8.04602L20.5222 10.714V1.66309L16.5997 4.66881C16.7703 4.77012 17.316 4.87144 17.3502 5.6482V18.3466L15.7129 19.5623L15.8152 19.7311L16.6339 19.1232L18.8509 21.1834L22.3641 18.4478L22.2277 18.279L21.4091 18.9206L20.5222 18.0764V11.018L21.5456 10.1399L23.0804 12.0311C23.0804 12.0311 23.0804 16.6242 23.0804 18.1439C23.0804 19.765 23.0804 21.7912 22.1936 22.7707C21.375 23.7163 20.9998 23.7838 20.147 24.054Z"
            fill="#9BA2B2"
          />
          <path
            d="M44.5355 23.4122C43.1371 23.2434 42.5572 22.3991 42.5572 21.7575C42.5572 21.3184 42.9665 20.5079 43.8192 20.3728C44.6719 20.2714 45.5587 20.643 46.275 21.521L49.5154 17.975L49.3449 17.8399L48.458 18.8192C47.5712 17.8061 46.3091 17.1982 45.0812 16.9956V6.18847L53.5061 21.3859C53.5061 21.3859 53.5743 21.5548 53.9495 21.5548C54.2564 21.5548 54.1883 21.3184 54.1883 21.3184V6.01961C54.8705 5.98584 55.9279 5.61434 56.4395 5.10776C58.0766 3.45293 57.3945 1.663 57.224 1.49414C57.1216 2.2709 56.5077 3.08143 55.4844 3.08143C54.1542 3.08143 53.3356 2.10204 53.3356 2.10204L50.0611 5.71566L50.2317 5.85075L51.1526 4.80381C52.2782 5.85075 53.1309 5.91829 53.9837 5.98584V14.8679L47.7076 3.62179C47.1278 2.70994 46.275 1.86563 44.9448 1.86563C43.3758 1.86563 42.2843 3.21652 42.1479 4.36478C42.0114 5.68188 42.1479 5.98584 42.1479 5.98584C42.1479 5.98584 42.3866 4.53363 43.3076 4.53363C44.1262 4.53363 44.5696 5.3104 44.8766 5.85075V9.09287C44.0239 9.16042 41.8068 9.26174 41.6703 11.5245C41.6703 12.3688 42.182 13.2469 42.6595 13.5508C43.2734 13.956 43.7169 13.9223 43.7169 13.9223C43.7169 13.9223 43.0006 13.5508 43.2053 12.8078C43.4099 12.1324 44.8084 12.0311 44.8425 12.3013V16.8943C44.1603 16.8943 42.0114 16.9618 41.0223 18.7855C40.4424 19.9 40.4766 21.1495 41.0905 22.0276C41.6703 22.8043 42.7277 23.7162 44.5355 23.4122Z"
            fill="#9BA2B2"
          />
          <path
            d="M62.3763 14.057L59.8523 15.8807V9.76796L62.3763 14.057ZM62.3081 8.18066C62.3081 8.18066 60.6027 9.19383 59.4429 9.86927C58.2832 10.5447 56.7484 11.2877 56.7484 11.2877V18.3799L55.7251 19.1904L55.8616 19.3592L56.8508 18.5487L59.9887 21.3518L65.4462 17.0627L65.3097 16.8938L62.3081 19.2241L59.8182 16.9277V16.0833L64.7981 12.4697L62.3081 8.18066Z"
            fill="#9BA2B2"
          />
          <path
            d="M69.9474 21.419L67.2869 19.2239L66.1273 20.0682L66.025 19.8993L67.2187 19.0212V12.9084C67.2869 10.3756 64.8653 11.0172 65.0016 8.31546C65.0698 7.13343 66.1955 6.25535 66.8094 5.95141C67.4234 5.64746 68.1055 5.64746 68.1055 5.64746C68.1055 5.64746 67.0141 6.32289 67.2869 7.30229C67.6963 8.78827 70.2886 8.92336 70.3226 10.9497V17.873L72.2328 19.3928L72.7444 18.9875V11.4563L71.7211 10.4431L74.3816 8.11282L76.8033 10.2405L75.8824 11.2199V17.9067L78.1677 19.7642L78.5769 19.494V11.49L77.5537 10.5444L80.2142 8.14659L82.7042 10.1729L83.6933 9.29485L83.8297 9.46371L81.5785 11.4225V17.9743L75.8483 21.4529L72.9149 19.1563L69.9474 21.419Z"
            fill="#9BA2B2"
          />
          <path
            d="M187.044 14.057L184.52 15.8807V9.76796L187.044 14.057ZM186.976 8.18066C186.976 8.18066 185.271 9.19383 184.111 9.86927C182.951 10.5447 181.416 11.2877 181.416 11.2877V18.3799L180.393 19.1904L180.53 19.3592L181.518 18.5487L184.656 21.3518L190.114 17.0627L189.977 16.8938L186.976 19.2241L184.486 16.9277V16.0833L189.5 12.5035L186.976 8.18066Z"
            fill="#9BA2B2"
          />
          <path
            d="M161.394 11.152L161.53 11.3209L162.554 10.4428L164.089 12.1314V18.0078L163.338 18.6832L165.726 21.3175L168.148 18.9534L167.158 17.9065V10.8481L167.773 10.3415L169.443 12.3003V18.1428L168.796 18.7846L171.047 21.2499L173.434 18.8858L172.547 17.974V10.8481L173.195 10.3415L174.935 12.2665V18.0753L174.355 18.6495L176.811 21.3175L180.154 18.2779L179.983 18.1428L179.198 18.8521L177.971 17.5012V10.8818L179.165 9.97002L179.028 9.80116L177.835 10.713L175.583 8.21387L172.343 10.713L170.092 8.28142L166.988 10.713L164.702 8.31519L161.394 11.152Z"
            fill="#9BA2B2"
          />
          <path
            d="M154.674 10.9836L154.81 11.1186L155.664 10.3757L157.027 11.963V18.6837L156.072 19.4942L156.209 19.6631L157.199 18.8187L159.381 21.3178L162.553 18.5147L162.417 18.3459L161.496 19.1565L160.166 17.6705V11.1186L161.291 10.1731L161.155 10.038L160.098 10.916L157.812 8.24805L154.674 10.9836Z"
            fill="#9BA2B2"
          />
          <path d="M155.56 5.41142L157.947 3.25L159.892 5.37765L157.503 7.53907L155.56 5.41142Z" fill="#9BA2B2" />
          <path
            d="M145.77 15.9816V8.55174L143.518 9.5649C143.518 9.5649 142.938 10.8482 143.041 12.7057C143.11 14.1579 143.928 15.8803 144.576 16.6233L145.77 15.9816ZM152.387 0.682825C152.933 0.716597 153.82 0.986774 154.467 1.5609C155.184 2.23635 155.32 3.24951 155.082 4.19513C154.877 5.00566 154.604 5.44469 153.752 6.01883C152.898 6.59295 151.841 6.55918 151.841 6.55918V10.139L153.615 11.5575L151.841 12.9759V17.8729C151.841 17.8729 153.615 16.8596 154.707 14.6307C154.707 14.6307 154.74 14.4956 154.842 14.293C154.945 14.9009 154.877 16.1167 154.195 17.6703C153.683 18.8522 152.728 19.9667 151.568 20.6084C149.488 21.7567 147.919 21.8579 146.247 21.5202C144.269 21.1149 142.495 20.0343 141.268 18.1092C140.414 16.7584 140.039 15.2049 140.074 13.5162C140.142 10.2066 142.632 7.36971 145.497 6.289C145.838 6.15391 145.974 6.08637 146.486 6.01883C146.247 6.18769 146.009 6.35654 145.667 6.59295C144.747 7.20085 143.962 8.38287 143.621 9.29472L149.181 6.82935V14.5294L144.712 16.7584C145.224 17.4676 146.793 18.5145 148.089 18.6834C150.341 18.9198 151.671 17.9404 151.671 17.9404V12.9422L149.931 11.5237L151.671 10.1052V6.55918C150.716 6.45786 149.556 6.15392 148.874 5.98505C147.884 5.74865 144.542 4.80303 144.03 4.73548C143.518 4.66794 142.87 4.66794 142.461 5.03943C142.086 5.37715 141.813 5.98505 141.983 6.55918C142.086 6.86312 142.291 7.06576 142.461 7.23462C142.461 7.23462 142.256 7.23462 141.916 6.99822C141.301 6.62672 140.824 5.88373 140.756 5.00566C140.688 3.82363 141.165 2.7767 142.154 2.03371C143.007 1.49336 143.962 1.15563 145.087 1.29072C146.725 1.52713 148.942 2.43897 150.886 2.91179C151.636 3.08064 152.25 3.1482 152.762 2.84424C153.001 2.67539 153.445 2.20257 153.103 1.59467C152.693 0.885457 151.875 0.885457 151.193 0.784141C151.807 0.649053 151.943 0.649053 152.387 0.682825Z"
            fill="#9BA2B2"
          />
          <path
            d="M194.069 9.56498V13.0773L195.263 14.0905C195.263 14.0905 197.821 12.0641 198.776 10.1729C198.776 10.1729 197.616 11.7264 196.047 11.2536C194.752 10.8483 194.069 9.56498 194.069 9.56498ZM191.204 18.8861C191.204 18.8861 192.33 17.0286 194.274 17.4339C196.115 17.8054 196.764 19.7642 196.764 19.7642V15.3062L195.467 14.1917C194.035 15.6102 191.511 17.6365 191.204 18.8861ZM193.046 22.2971C192.67 22.3984 191.101 22.0269 190.726 20.4059C190.351 18.8523 191.476 17.7716 193.114 16.1168L191.136 14.3268V10.9497C191.136 10.9497 192.568 10.2404 193.694 9.53121C194.819 8.822 195.979 8.07901 195.979 8.07901C195.979 8.07901 196.832 9.12595 197.787 9.0584C199.288 8.92331 199.219 7.77506 199.151 7.50488C199.39 7.94392 200.073 9.29481 197.48 12.3005L199.629 14.0229V18.4133C199.629 18.4133 197.139 19.6966 194.819 21.3852C194.819 21.3852 193.523 19.7642 192.363 20.541C191.613 21.0138 191.955 21.8918 193.046 22.2971Z"
            fill="#9BA2B2"
          />
          <path
            d="M107.262 17.2987L110.025 19.7641V12.1991L107.262 9.66623V17.2987ZM112.925 11.1184L113.88 10.2404L114.015 10.4092L113.095 11.2535V18.2443C113.095 18.2443 111.321 19.1899 110.059 19.8654C108.831 20.5746 107.501 21.3851 107.501 21.3851L104.227 18.6496L103.373 19.3926L103.238 19.2238L104.158 18.447V10.9496C104.158 10.9496 105.693 10.2741 106.989 9.53114C108.149 8.88947 109.446 8.14648 109.446 8.14648L112.925 11.1184Z"
            fill="#9BA2B2"
          />
          <path
            d="M119.34 10.4098L121.42 8.31592C121.42 8.31592 121.692 8.55232 121.965 8.6874C122.102 8.75495 122.75 9.09267 123.33 8.75495C123.637 8.58609 123.671 8.55232 124.012 8.21459C124.081 9.83566 123.296 10.9839 122.307 11.4567C121.897 11.6594 120.738 12.0308 119.476 10.5449V18.0761L120.772 19.2243L121.863 18.3124L122 18.4813L118.555 21.3182L115.963 18.9541L115.007 19.8322L114.837 19.6634L116.269 18.38V11.862L115.178 10.4098L114.223 11.2203L114.087 11.0852L117.395 8.11328L119.34 10.4098Z"
            fill="#9BA2B2"
          />
          <path
            d="M128.07 13.5504L131.891 8.04549C131.891 8.04549 132.403 8.65339 133.289 8.85603C134.483 9.15997 135.541 8.01172 135.541 8.01172C135.336 9.4977 134.586 11.1525 133.016 11.4227C131.652 11.6591 130.356 10.5784 130.356 10.5784L130.117 10.9499L135.438 18.9201L136.495 18.0083L136.632 18.1771L132.983 21.3517L128.07 13.5504Z"
            fill="#9BA2B2"
          />
          <path
            d="M124.931 6.18765C124.931 5.00563 124.453 4.26264 123.805 4.33019L128 1.42578V17.8728L129.092 19.0211L129.945 18.3119L130.081 18.4807L126.704 21.3851L124.419 19.2575L123.498 20.068L123.362 19.8992L124.964 18.5145V6.18765"
            fill="#9BA2B2"
          />
          <path
            d="M98.0873 10.8149C98.0873 10.8149 97.6098 11.3214 96.8935 11.3214C96.1772 11.3214 95.6997 10.8149 95.6997 10.8149V13.0776C95.6997 13.0776 96.1772 12.571 96.8935 12.571C97.6098 12.571 98.0873 13.0776 98.0873 13.0776V10.8149ZM98.0873 5.98544L96.4842 4.56702L95.6997 5.17492V10.4434C95.6997 10.4434 96.1772 11.0512 96.8935 11.0512C97.6098 11.0512 98.0873 10.4771 98.0873 10.4771V5.98544ZM95.6997 20.9465C95.6997 20.9465 96.6888 21.2167 97.371 20.6425C98.1555 20.0009 98.0873 19.0891 98.0873 19.0891V13.3815C98.0873 13.3815 97.6439 12.8075 96.8935 12.8075C96.1772 12.8075 95.6997 13.4154 95.6997 13.4154V20.9465ZM89.9694 5.9179C89.9694 4.80342 89.526 4.19552 88.7756 4.16175C87.7183 4.12798 87.4454 5.61396 87.4454 5.61396C87.4454 5.61396 87.2407 4.4657 88.2299 3.41876C88.7756 2.84464 89.7989 2.0341 91.3678 2.4056C93.0051 2.81086 93.4827 4.06043 93.4827 5.17492V20.4737C93.4827 20.4737 94.0966 20.5413 94.54 20.6425C95.0175 20.7439 95.495 20.879 95.495 20.879V2.43937H95.6997V4.93851L99.0424 2.27051L101.498 4.43192L102.658 3.45253L102.795 3.6214L101.601 4.63456V18.8526C101.533 19.7645 101.396 20.7101 100.509 21.2842C98.5308 22.4325 96.1431 21.1153 94.0284 20.8114C92.4593 20.575 89.9694 20.2711 89.3554 21.7232C89.1508 22.1961 89.1508 22.9053 89.8671 23.3781C91.2996 24.3237 97.678 21.7908 99.861 22.804C101.873 23.7158 101.84 25.168 101.533 26.1812C101.021 28.0725 98.6331 28.3764 98.6331 28.3764C98.6331 28.3764 99.7927 27.7009 99.4858 26.5864C99.3152 26.0124 98.94 25.8773 97.678 26.0124C94.9493 26.3162 91.6749 27.6334 89.4578 26.7215C88.3322 26.2487 87.5136 24.8641 87.6159 23.4794C87.6841 21.4869 89.9694 20.7101 89.9694 20.7101V13.3815C89.9012 13.0776 88.6733 13.1789 88.4004 13.7192C87.9912 14.5298 88.912 14.9013 88.912 14.9013C88.912 14.9013 88.1617 15.0027 87.5136 14.2934C87.2066 13.9219 86.5586 12.6724 87.4113 11.5241C88.0934 10.5784 88.9462 10.4096 90.0035 10.3083V5.9179H89.9694Z"
            fill="#9BA2B2"
          />
        </g>
        <defs>
          <clipPath id="clip0_201_7183">
            <rect width="199.932" height="28.7031" fill="white" transform="translate(0.53418 0.648438)" />
          </clipPath>
        </defs>
</svg>