<svg xmlns="http://www.w3.org/2000/svg" width="67" height="42" viewBox="0 0 67 42" fill="none">
  <g clipPath="url(#clip0_201_7268)">
    <path fill-rule="evenodd" clip-rule="evenodd" d="M53.7929 33.7091H48.6165C48.3449 33.6853 48.0714 33.7191 47.8138 33.8084C47.5562 33.8976 47.3203 34.0403 47.1217 34.2271C46.923 34.4138 46.766 34.6403 46.661 34.8919C46.556 35.1435 46.5054 35.4146 46.5123 35.687V37.6651C46.5123 37.9228 46.5637 38.178 46.6636 38.4156C46.7635 38.6533 46.9099 38.8687 47.0941 39.049C47.2784 39.2292 47.4968 39.371 47.7365 39.4657C47.9763 39.5605 48.2325 39.6064 48.4903 39.6008H53.6666C54.18 39.6008 54.6724 39.3969 55.0355 39.0338C55.3985 38.6708 55.6025 38.1784 55.6025 37.6651V35.687C55.6082 35.4258 55.561 35.166 55.4636 34.9234C55.3663 34.6809 55.2208 34.4604 55.0359 34.2757C54.8511 34.0909 54.6308 33.9454 54.3882 33.8479C54.1456 33.7507 53.8858 33.7033 53.6245 33.7091H53.7929ZM53.9612 37.6651C53.9612 37.7097 53.9435 37.7524 53.9119 37.784C53.8803 37.8157 53.8375 37.8334 53.7929 37.8334H48.6165C48.5923 37.8476 48.565 37.8554 48.5369 37.8564C48.5089 37.8573 48.4811 37.8512 48.456 37.8387C48.4309 37.8262 48.4094 37.8075 48.3933 37.7846C48.3772 37.7616 48.3672 37.735 48.364 37.7071V35.687C48.364 35.5609 48.4482 35.5187 48.5744 35.5187H53.7508C53.8349 35.5187 53.9191 35.5187 53.9191 35.687V37.6651H53.9612ZM45.1235 35.5608C45.0394 35.4766 44.9552 35.4766 44.9131 35.5608L44.3239 36.5288C44.3018 36.5672 44.2901 36.6106 44.2901 36.6549C44.2901 36.6993 44.3018 36.7428 44.3239 36.7812L44.9131 37.7912H45.0815L45.6706 36.7812C45.6928 36.7428 45.7045 36.6993 45.7045 36.6549C45.7045 36.6106 45.6928 36.5672 45.6706 36.5288L45.0815 35.5608H45.1235ZM64.0193 33.7091H56.7808V41.9996H58.5484V39.6008H64.0193C64.5254 39.5898 65.007 39.381 65.361 39.0192C65.715 38.6573 65.9132 38.1713 65.9131 37.6651V35.687C65.9187 35.4328 65.8741 35.18 65.7819 34.943C65.6898 34.706 65.5518 34.4894 65.376 34.3057C65.2001 34.122 64.9898 33.9748 64.757 33.8724C64.5242 33.77 64.2735 33.7145 64.0193 33.7091ZM64.1455 37.6651C64.1464 37.6912 64.1411 37.7171 64.1302 37.7408C64.1192 37.7646 64.1029 37.7854 64.0824 37.8018C64.062 37.8181 64.0381 37.8295 64.0125 37.8349C63.9869 37.8405 63.9604 37.8399 63.9351 37.8334H58.4642V35.5608H63.9351C64.0193 35.5608 64.1035 35.5608 64.1035 35.7291V37.7071L64.1455 37.6651ZM59.6846 31.8995H64.6506C64.9713 31.9002 65.2803 31.7788 65.5148 31.5599C65.7493 31.3411 65.8917 31.0411 65.9131 30.7211V15.7812H59.6846V31.8995ZM24.7549 35.687V37.6651C24.7548 37.9228 24.8062 38.178 24.9061 38.4156C25.006 38.6533 25.1524 38.8687 25.3367 39.049C25.5209 39.2292 25.7393 39.371 25.9791 39.4657C26.2188 39.5605 26.4751 39.6064 26.7328 39.6008H33.1717V37.7912H26.7328C26.702 37.7841 26.6739 37.7686 26.6516 37.7463C26.6292 37.7239 26.6136 37.6958 26.6066 37.6651V35.687C26.6066 35.5609 26.6066 35.5187 26.7749 35.5187H33.2138V33.7091H26.7328C26.475 33.709 26.2198 33.7604 25.9821 33.8603C25.7445 33.9602 25.5292 34.1067 25.3488 34.291C25.1685 34.4752 25.0268 34.6936 24.932 34.9333C24.8373 35.173 24.7913 35.4293 24.7969 35.687H24.7549ZM45.4181 31.8995H57.2017V28.5327H50.2999V25.5868H57.2017V22.136H50.2999V19.1901H57.2017V15.8233H44.1556V30.6369C44.1556 30.9718 44.2886 31.2929 44.5254 31.5297C44.7622 31.7664 45.0833 31.8995 45.4181 31.8995Z" fill="#9BA2B2"/>
    <path fill-rule="evenodd" clip-rule="evenodd" d="M24.7968 20.8316V31.8997H31.0252V27.6913H32.919L35.8649 31.8997H42.7246L39.1895 26.6813L41.6304 24.2404V15.8236H35.4441L31.0252 18.012V16.4128C31.0252 16.0761 30.7306 15.7815 30.3519 15.7815H28.6685L38.3058 2.86172L49.8789 13.1723L55.7707 6.73345L63.3458 13.1723H65.8708L55.7707 4.25049L49.0372 9.84767L39.1054 1.17835L37.8429 0L17.0533 20.7054L14.6545 15.7815H16.6325L10.5303 4.25049L4.55439 15.7815H6.44817L2.4081 23.9037H4.93314L0.219727 33.6673L22.6084 39.559L18.1896 29.5851L24.7968 20.7474V20.8316ZM31.0252 21.547L35.4441 19.2745V23.9037H31.0252V21.547Z" fill="#9BA2B2"/>
    <path fill-rule="evenodd" clip-rule="evenodd" d="M41.4605 33.71H36.1579C35.6519 33.7319 35.1746 33.9512 34.8284 34.321C34.4822 34.6908 34.2948 35.1815 34.3062 35.6879V37.6659C34.3061 38.1721 34.5043 38.6582 34.8583 39.0201C35.2123 39.3819 35.6939 39.5907 36.2 39.6017H41.4605C41.9666 39.5907 42.4483 39.3819 42.8023 39.0201C43.1563 38.6582 43.3544 38.1721 43.3543 37.6659V35.6879C43.3599 35.4302 43.314 35.1739 43.2192 34.9342C43.1244 34.6944 42.9827 34.476 42.8024 34.2918C42.6221 34.1075 42.4068 33.9612 42.1691 33.8613C41.9315 33.7613 41.6762 33.7099 41.4184 33.71H41.4605ZM41.5868 37.6659C41.5868 37.688 41.5824 37.7099 41.574 37.7303C41.5655 37.7507 41.5531 37.7693 41.5375 37.7849C41.5218 37.8005 41.5033 37.8129 41.4829 37.8214C41.4624 37.8299 41.4405 37.8342 41.4184 37.8342H36.1579C36.1197 37.8354 36.0822 37.8236 36.0516 37.8006C36.021 37.7777 35.9991 37.745 35.9896 37.708V35.6879C35.9896 35.5617 36.1159 35.5196 36.2 35.5196H41.4605C41.4605 35.5196 41.5868 35.5196 41.5868 35.6879V37.6659Z" fill="#9BA2B2"/>
  </g>
  <defs>
    <clipPath id="clip0_201_7268">
      <rect width="66" height="42" fill="white" transform="translate(0.219727)"/>
    </clipPath>
  </defs>
</svg>