<svg xmlns="http://www.w3.org/2000/svg" width="120" height="40" viewBox="0 0 120 40" fill="none">
  <g clipPath="url(#clip0_201_7265)">
    <path fill-rule="evenodd" clip-rule="evenodd" d="M10.6006 39.9463C7.69046 39.9463 5.23412 38.9801 3.28507 37.0209C1.33602 35.0616 0.348145 32.6461 0.348145 29.7743C0.348145 26.9025 1.33602 24.4601 3.31177 22.4472C5.31422 20.4342 7.74385 19.4412 10.6273 19.4412C13.5109 19.4412 15.9405 20.4342 17.9163 22.4472C19.9187 24.4601 20.9066 26.8756 20.9066 29.7206C20.9066 32.5655 19.9187 34.9811 17.9163 36.9672C15.9405 38.9533 13.5109 39.9463 10.6006 39.9463ZM16.7949 29.7206C16.7949 27.8955 16.2075 26.3925 15.006 25.1848C13.8046 23.977 12.3628 23.3597 10.6273 23.3597C8.89193 23.3597 7.45016 23.977 6.24869 25.1848C5.04722 26.3925 4.45984 27.9224 4.45984 29.7206C4.45984 31.5188 5.04722 33.0218 6.22199 34.2296C7.42346 35.4373 8.89193 36.0278 10.6273 36.0278C12.3628 36.0278 13.8313 35.4373 15.0327 34.2296C16.2342 33.0218 16.8216 31.5188 16.7949 29.7206ZM26.1163 39.6243V31.7872C26.1163 29.6132 27.4513 28.0834 29.4537 28.0834C31.296 28.0834 32.5241 29.3717 32.5241 31.7067V39.6243H36.2887V30.6868C36.2887 28.7275 35.728 27.2245 34.6334 26.1778C33.5387 25.1311 32.177 24.5943 30.6018 24.5943C28.5459 24.5943 26.8105 25.6142 26.0362 27.0367V24.9969H22.3517V39.6243H26.1163ZM52.3918 31.9751C52.3918 32.485 52.3384 33.0486 52.2583 33.6391H41.3382C41.8722 35.7057 43.2873 36.7525 45.5834 36.7525C47.1587 36.7525 49.0277 36.1352 50.2825 35.2763L51.7777 37.9334C49.9354 39.2753 47.8262 39.9463 45.4232 39.9463C42.8601 39.9463 40.9111 39.1948 39.5494 37.7187C38.1877 36.2425 37.5202 34.4174 37.5202 32.2971C37.5202 30.0695 38.2144 28.2444 39.6295 26.7951C41.0446 25.3458 42.8601 24.6211 45.1029 24.6211C47.2121 24.6211 48.9743 25.2921 50.3359 26.6072C51.6976 27.9224 52.3918 29.6937 52.3918 31.9751ZM45.1029 27.7613C43.2072 27.7613 41.7921 28.9154 41.3382 30.821H48.734C48.3869 28.9154 47.0252 27.7613 45.1029 27.7613ZM59.7374 39.9463C56.667 39.9463 53.8903 38.6312 52.2616 36.2425L54.5311 33.4781C55.8126 35.2763 57.735 36.2425 59.7641 36.2425C61.3928 36.2425 62.5943 35.3837 62.5943 34.1222C62.5943 33.317 62.0069 32.6192 60.8054 32.0556C60.5384 31.9214 59.8976 31.6798 58.8563 31.2773C57.8418 30.8747 57.0675 30.4989 56.5335 30.2037C54.451 28.9959 53.4097 27.3587 53.4097 25.2653C53.4097 23.6012 54.0238 22.2324 55.2786 21.132C56.5335 20.0316 58.1622 19.468 60.1379 19.468C62.701 19.468 64.8637 20.3537 66.6258 22.1519L64.5166 25.0506C63.4219 23.8696 61.6598 23.1987 60.1913 23.1987C58.6161 23.1987 57.6549 23.9502 57.6549 25.1042C57.6549 25.8826 58.1889 26.5267 59.2568 27.0635L61.2059 27.9224C62.3006 28.3786 63.1015 28.7275 63.6088 28.9691C65.8516 30.0695 66.9729 31.7067 66.9729 33.9075C66.9729 35.6789 66.3055 37.1282 64.9705 38.2555C63.6355 39.3827 61.9001 39.9463 59.7374 39.9463ZM67.6171 32.2971C67.6171 30.15 68.3379 28.3249 69.8064 26.8488C71.2749 25.3458 73.1438 24.5943 75.4133 24.5943C77.6827 24.5943 79.5517 25.3458 81.0201 26.8488C82.4886 28.3249 83.2095 30.15 83.2095 32.2971C83.2095 34.4711 82.4886 36.2962 81.0201 37.7723C79.5517 39.2485 77.6827 40 75.4133 40C73.1438 40 71.2749 39.2485 69.8064 37.7723C68.3379 36.2962 67.6171 34.4711 67.6171 32.2971ZM72.5297 35.2763C73.304 36.0815 74.2652 36.4841 75.4133 36.4841C76.5613 36.4841 77.4958 36.0815 78.2701 35.2763C79.0444 34.4443 79.4449 33.4512 79.4449 32.2971C79.4449 31.1431 79.0444 30.15 78.2701 29.3448C77.4958 28.5397 76.5613 28.1371 75.4133 28.1371C74.2652 28.1371 73.304 28.5397 72.5297 29.3448C71.7555 30.15 71.3817 31.1431 71.3817 32.2971C71.3817 33.4512 71.7555 34.4443 72.5297 35.2763ZM88.2056 22.6887C89.0867 21.803 89.0867 20.2463 88.2056 19.3875C87.3245 18.5018 85.7759 18.5018 84.8949 19.3875C84.0138 20.2463 84.0138 21.803 84.8949 22.6887C85.7759 23.5744 87.3245 23.5744 88.2056 22.6887ZM88.4192 24.9969H84.6546V39.6243H88.4192V24.9969ZM94.2964 19.2264V39.6243H90.5318V19.2264H94.2964ZM101.205 1.10143L102.067 0C103.131 0.524515 108.753 1.6749 112.169 3.17151C113.873 3.91982 115.599 4.94087 116.9 6.5284C118.201 8.11593 119.015 10.2769 119.015 12.8505C119.015 15.62 117.797 17.5921 116.566 18.7251C115.974 19.2706 115.376 19.6482 114.896 19.9C115.439 22.5436 115.453 25.1172 115.453 27.2292H111.891C111.891 22.3198 112.169 17.1865 106.715 12.8505L108.885 9.99719C111.313 11.9274 112.872 14.0954 113.839 16.3193C113.943 16.2354 114.006 16.2004 114.117 16.0955C114.778 15.4801 115.453 14.6199 115.453 12.8505C115.453 10.9973 114.924 9.80836 114.117 8.82228C113.31 7.83619 112.169 7.02494 110.777 6.4165C108.419 5.38146 105.852 4.91989 103.653 4.12263C102.972 5.22761 101.205 8.38168 101.205 13.6338C101.205 17.0467 102.13 18.5083 102.93 19.2286C103.73 19.949 104.676 20.0679 105.045 20.0679C105.678 20.0679 106.951 19.3965 108.551 18.7251L109.887 22.026C108.656 22.5436 107.174 23.6485 105.045 23.6485C104.071 23.6485 102.199 23.3618 100.537 21.8582C99.8051 21.1965 99.2921 20.6236 98.6604 19.1904C98.0287 17.7572 97.6426 15.9246 97.6426 13.6338C97.6426 8.67308 98.83 4.49562 101.205 1.10143Z" fill="#9BA2B2"/>
  </g>
  <defs>
    <clipPath id="clip0_201_7265">
      <rect width="119" height="40" fill="white" transform="translate(0.348145)"/>
    </clipPath>
  </defs>
</svg>