<svg xmlns="http://www.w3.org/2000/svg" width="78" height="23" viewBox="0 0 78 23" fill="none">
  <g clipPath="url(#clip0_201_7227)">
    <path d="M52.9937 13.1649C52.9866 5.6499 58.6656 0.695181 68.0007 0.070989C70.7096 -0.10986 73.0483 0.0518841 75.5041 0.590119C77.1297 0.946272 77.0869 0.728151 76.2416 4.36516C75.4858 7.61799 75.6614 7.3555 74.2387 7.3555C72.8183 7.3555 72.8077 7.34933 72.7495 6.45125C72.616 4.40275 70.8618 3.32843 68.2018 3.66579C64.8727 4.08819 62.3526 6.4038 61.4298 9.8877C59.6794 16.4975 64.9853 20.3123 73.1721 18.3297C75.0091 17.8851 75.0293 17.9091 74.6057 20.0504C74.1989 22.1069 74.3433 21.9741 72.0287 22.4181C60.93 24.5473 53.0004 20.6924 52.9937 13.1649Z" fill="#9BA2B2"/>
    <path d="M5.09384 2.46361C5.09384 2.12471 5.42964 0.769725 5.56441 0.564536L5.6831 0.384306H11.2585C17.9555 0.384306 17.3203 0.225952 16.962 1.8043C16.7526 2.72765 16.7391 2.74737 16.1392 3.00093C15.5969 3.23015 15.1218 3.64576 14.9311 4.05798C14.7953 4.35128 13.375 10.4121 13.428 10.4722C13.4605 10.5091 13.6052 10.396 18.208 6.72975C22.3328 3.44396 22.3299 3.44734 21.4467 2.9735C20.879 2.6691 20.8642 2.48148 21.2794 0.810393C21.3897 0.36551 21.1549 0.384306 26.6763 0.384306C32.7718 0.384306 32.2357 0.230878 31.8616 1.86653C31.6676 2.71471 31.5637 2.82531 30.886 2.90665C30.263 2.9812 29.4344 3.22767 28.8355 3.51697C28.464 3.69628 21.0726 9.45451 20.2077 10.2383C20.0607 10.3714 20.182 10.5421 23.2611 14.5337C27.2907 19.758 27.4782 19.9447 28.8413 20.0843C29.501 20.1518 29.7728 20.3172 29.7689 20.649C29.7641 21.089 29.3691 22.4501 29.2148 22.5601C28.9668 22.7363 22.5161 22.655 21.6618 22.4649C18.8298 21.8342 17.2932 20.2645 14.0485 14.6871C12.9076 12.7261 12.9092 12.7283 12.8426 12.9363C12.4779 14.0774 11.5377 18.6991 11.6213 18.9413C11.7362 19.2749 12.1923 19.7198 12.5641 19.8603C13.2009 20.1015 13.2379 20.2836 12.9224 21.613C12.6458 22.7776 13.3537 22.6596 6.63839 22.6596C-0.325579 22.6596 0.287799 22.8309 0.763836 21.019C0.973549 20.2208 0.977087 20.2177 1.84135 19.9817C2.74582 19.7352 3.47596 18.8211 3.91565 17.3851C4.40488 15.7889 6.78184 4.9761 6.75 4.49239C6.70754 3.8454 6.39812 3.39836 5.79117 3.10783C5.20609 2.82808 5.09384 2.72394 5.09384 2.46361Z" fill="#9BA2B2"/>
    <path d="M33.3687 2.46436C33.3687 2.12546 33.7045 0.770473 33.8396 0.565284L33.9583 0.385053H44.0927C55.1676 0.385053 54.533 0.35825 54.533 0.821927C54.533 1.23908 53.2111 6.65348 53.0779 6.78103C52.9644 6.89009 52.7305 6.92028 51.8306 6.94123C50.378 6.97512 50.2667 6.91166 50.2661 6.04808C50.2648 4.1792 49.8216 3.97709 45.7971 4.00944L43.1258 4.0307L42.4735 6.8753C42.1146 8.43979 41.8203 9.78306 41.8193 9.86008C41.8177 9.99163 42.0509 10.0003 45.5546 10.0003C49.6324 10.0003 49.5974 9.99625 49.5974 10.4562C49.5974 10.9017 48.8402 13.8887 48.7026 13.9866C48.5945 14.0633 47.6562 14.0868 44.6894 14.0868H40.8171L40.7727 14.267C39.645 18.8508 39.6659 19.2525 41.0699 19.9386C41.2445 20.024 41.4111 20.166 41.4404 20.2544C41.5308 20.5268 41.0795 22.3584 40.8827 22.5201C40.5987 22.7534 31.5218 22.7343 31.2773 22.5001C31.0422 22.2749 30.921 22.8803 33.0844 13.4872C35.2687 4.00605 35.2185 4.30243 34.7421 3.65328C34.5887 3.44378 34.323 3.23058 34.0403 3.08886C33.4308 2.78385 33.3687 2.72623 33.3687 2.46436Z" fill="#9BA2B2"/>
  </g>
  <defs>
    <clipPath id="clip0_201_7227">
      <rect width="77" height="23" fill="white" transform="translate(0.5)"/>
    </clipPath>
  </defs>
</svg>