<svg xmlns="http://www.w3.org/2000/svg" width="151" height="35" viewBox="0 0 151 35" fill="none">
  <g clipPath="url(#clip0_201_7236)">
    <path d="M87.4452 13.8828H81.5446V14.5086C83.3899 14.5086 83.6866 14.904 83.6866 17.2439V21.4621C83.6866 23.8017 83.3907 24.2302 81.5446 24.2302C80.1275 24.0326 79.1708 23.2745 77.8518 21.8245L76.3358 20.1771C78.3795 19.814 79.4675 18.5292 79.4675 17.079C79.4675 15.267 77.9182 13.8828 75.0169 13.8828H69.2148V14.5086C71.0607 14.5086 71.3575 14.904 71.3575 17.2439V21.4621C71.3575 23.8017 71.0607 24.2302 69.2148 24.2302V24.8562H75.7751V24.2302C73.9293 24.2302 73.6325 23.8017 73.6325 21.4621V20.2761H74.1927L77.8518 24.8562H87.4452C92.1596 24.8562 94.2035 22.3521 94.2035 19.3529C94.2035 16.3542 92.1596 13.8828 87.4452 13.8828ZM73.6328 19.2538V14.8715H74.9842C76.4674 14.8715 77.127 15.893 77.127 17.0794C77.127 18.2329 76.4674 19.254 74.9842 19.254H73.6328V19.2538ZM87.5449 23.8348H87.3138C86.1269 23.8348 85.9623 23.5383 85.9623 22.0224V14.8715C85.9623 14.8715 87.4127 14.8715 87.5449 14.8715C90.9727 14.8715 91.5994 17.3757 91.5994 19.3201C91.5994 21.33 90.9727 23.8348 87.5449 23.8348Z" fill="#9BA2B2"/>
    <path d="M50.8534 20.4734L53.1282 13.7504C53.7878 11.8063 53.491 11.2463 51.3812 11.2463V10.5869H57.5788V11.2463C55.502 11.2463 55.0076 11.7405 54.1834 14.1461L50.4248 25.4162H49.9965L46.6335 15.1016L43.2053 25.4162H42.7767L39.1175 14.1461C38.3263 11.7405 37.7988 11.2463 35.8867 11.2463V10.5869H43.2053V11.2463C41.2601 11.2463 40.7323 11.7074 41.425 13.7504L43.6337 20.4734L46.9633 10.5869H47.5899L50.8534 20.4734Z" fill="#9BA2B2"/>
    <path d="M62.062 25.2847C58.4359 25.2847 55.4688 22.6157 55.4688 19.3529C55.4688 16.1236 58.4362 13.4541 62.062 13.4541C65.6884 13.4541 68.6552 16.1236 68.6552 19.3529C68.6552 22.6157 65.6884 25.2847 62.062 25.2847ZM62.062 14.4764C59.0294 14.4764 57.9742 17.2112 57.9742 19.3532C57.9742 21.5285 59.0294 24.2305 62.062 24.2305C65.1282 24.2305 66.183 21.5285 66.183 19.3532C66.183 17.2112 65.1282 14.4764 62.062 14.4764Z" fill="#9BA2B2"/>
    <path d="M102.346 24.1972V24.8563H94.7969V24.1972C97.0053 24.1972 97.401 23.6372 97.401 20.3413V15.0691C97.401 11.7733 97.0053 11.2463 94.7969 11.2463V10.5869H101.62C105.016 10.5869 106.895 12.3335 106.895 14.6736C106.895 16.9475 105.016 18.7268 101.62 18.7268H99.7416V20.3411C99.7416 23.6372 100.137 24.1972 102.346 24.1972ZM101.62 11.7733H99.7416V17.5075H101.62C103.467 17.5075 104.324 16.2224 104.324 14.6736C104.324 13.0919 103.467 11.7733 101.62 11.7733Z" fill="#9BA2B2"/>
    <path d="M129.542 21.7588L129.377 22.3518C129.081 23.4393 128.718 23.8348 126.377 23.8348H125.915C124.201 23.8348 123.904 23.4393 123.904 21.0997V19.584C126.476 19.584 126.674 19.8143 126.674 21.5282H127.3V16.6178H126.674C126.674 18.3314 126.476 18.562 123.904 18.562V14.8715H125.717C128.059 14.8715 128.421 15.267 128.718 16.3545L128.882 16.9802H129.41L129.18 13.8828H119.487V14.5086C121.333 14.5086 121.629 14.904 121.629 17.2439V21.4621C121.629 23.6025 121.378 24.1417 119.922 24.2185C118.539 24.0073 117.589 23.2531 116.29 21.8245L114.773 20.1771C116.817 19.814 117.905 18.5292 117.905 17.079C117.905 15.267 116.356 13.8828 113.455 13.8828H107.652V14.5086C109.498 14.5086 109.795 14.904 109.795 17.2439V21.4621C109.795 23.8017 109.499 24.2302 107.652 24.2302V24.8562H114.213V24.2302C112.368 24.2302 112.07 23.8017 112.07 21.4621V20.2761H112.631L116.29 24.8562H129.839L130.037 21.7591H129.542V21.7588ZM112.07 19.2538V14.8715H113.422C114.905 14.8715 115.564 15.893 115.564 17.0794C115.564 18.2329 114.905 19.254 113.422 19.254H112.07V19.2538Z" fill="#9BA2B2"/>
    <path d="M136.234 25.2844C134.915 25.2844 133.762 24.5927 133.267 24.1639C133.102 24.329 132.806 24.8232 132.74 25.2844H132.113V20.7373H132.772C133.037 22.9121 134.553 24.1972 136.498 24.1972C137.553 24.1972 138.41 23.6042 138.41 22.6157C138.41 21.7591 137.652 21.0998 136.3 20.4737L134.421 19.5841C133.102 18.9575 132.113 17.8699 132.113 16.4203C132.113 14.8385 133.597 13.4876 135.641 13.4876C136.729 13.4876 137.651 13.8831 138.212 14.3443C138.377 14.2125 138.542 13.8498 138.641 13.4541H139.267V17.3429H138.575C138.344 15.794 137.487 14.5089 135.74 14.5089C134.817 14.5089 133.959 15.0361 133.959 15.8603C133.959 16.7169 134.652 17.1781 136.234 17.9032L138.047 18.7929C139.63 19.5508 140.256 20.7706 140.256 21.7591C140.256 23.8348 138.443 25.2844 136.234 25.2844Z" fill="#9BA2B2"/>
    <path d="M146.389 25.2844C145.069 25.2844 143.916 24.5927 143.421 24.1639C143.257 24.329 142.96 24.8232 142.894 25.2844H142.268V20.7373H142.927C143.191 22.9121 144.707 24.1972 146.652 24.1972C147.707 24.1972 148.565 23.6042 148.565 22.6157C148.565 21.7591 147.806 21.0998 146.454 20.4737L144.575 19.5841C143.257 18.9575 142.268 17.8699 142.268 16.4203C142.268 14.8385 143.751 13.4876 145.795 13.4876C146.883 13.4876 147.806 13.8831 148.367 14.3443C148.531 14.2125 148.696 13.8498 148.795 13.4541H149.421V17.3429H148.729C148.498 15.794 147.641 14.5089 145.894 14.5089C144.971 14.5089 144.114 15.0361 144.114 15.8603C144.114 16.7169 144.806 17.1781 146.389 17.9032L148.201 18.7929C149.784 19.5508 150.41 20.7706 150.41 21.7591C150.41 23.8348 148.597 25.2844 146.389 25.2844Z" fill="#9BA2B2"/>
    <path d="M2.91406 17.4996C2.91406 23.2721 6.27008 28.2608 11.1366 30.6248L4.17719 11.5645C3.36768 13.3782 2.91406 15.3854 2.91406 17.4996Z" fill="#9BA2B2"/>
    <path d="M27.3592 16.7632C27.3592 14.9608 26.7115 13.7126 26.156 12.7412C25.4165 11.5399 24.7233 10.5225 24.7233 9.32124C24.7233 7.98066 25.7404 6.73274 27.1732 6.73274C27.2379 6.73274 27.2992 6.74079 27.3622 6.74439C24.7665 4.36734 21.3084 2.91602 17.5102 2.91602C12.4133 2.91602 7.92901 5.53006 5.32031 9.48938C5.6626 9.49966 5.98518 9.50692 6.25918 9.50692C7.7852 9.50692 10.1474 9.32178 10.1474 9.32178C10.9339 9.27549 11.0266 10.4301 10.241 10.523C10.241 10.523 9.45055 10.6161 8.57111 10.6621L13.884 26.4588L17.0768 16.887L14.8037 10.6615C14.0181 10.6155 13.2738 10.5225 13.2738 10.5225C12.4876 10.4765 12.5798 9.27487 13.366 9.32124C13.366 9.32124 15.7753 9.5063 17.209 9.5063C18.7347 9.5063 21.0971 9.32124 21.0971 9.32124C21.8841 9.27487 21.9766 10.4296 21.1907 10.5225C21.1907 10.5225 20.3987 10.6155 19.5209 10.6615L24.7932 26.3386L26.2485 21.4776C26.8792 19.4605 27.3592 18.0117 27.3592 16.7632Z" fill="#9BA2B2"/>
    <path d="M17.7641 18.7754L13.3867 31.4901C14.6937 31.8741 16.0759 32.0842 17.5081 32.0842C19.2071 32.0842 20.8363 31.7906 22.3529 31.2576C22.3138 31.1951 22.2783 31.1288 22.2491 31.0567L17.7641 18.7754Z" fill="#9BA2B2"/>
    <path d="M30.3113 10.502C30.374 10.9666 30.4095 11.4652 30.4095 12.0017C30.4095 13.4815 30.133 15.1451 29.3001 17.2253L24.8438 30.1048C29.181 27.5765 32.0986 22.8794 32.0986 17.4992C32.0988 14.9637 31.4509 12.5794 30.3113 10.502Z" fill="#9BA2B2"/>
    <path d="M17.5069 0.5C8.12954 0.5 0.5 8.12595 0.5 17.4996C0.5 26.8743 8.12954 34.5 17.5069 34.5C26.884 34.5 34.5147 26.8743 34.5147 17.4996C34.5144 8.12595 26.884 0.5 17.5069 0.5ZM17.5069 33.7208C8.55954 33.7208 1.27981 26.4439 1.27981 17.4996C1.27981 8.55576 8.55931 1.2795 17.5069 1.2795C26.454 1.2795 33.7331 8.55576 33.7331 17.4996C33.7331 26.4439 26.454 33.7208 17.5069 33.7208Z" fill="#9BA2B2"/>
  </g>
  <defs>
    <clipPath id="clip0_201_7236">
      <rect width="150" height="34" fill="white" transform="translate(0.5 0.5)"/>
    </clipPath>
  </defs>
</svg>