<svg xmlns="http://www.w3.org/2000/svg" width="652" height="5627" viewBox="0 0 652 5627" fill="none">
  <path d="M285 1C493 96.6667 820 306.7 464 381.5C18.9997 475 37.0001 815.5 69.4999 1217.5C102 1619.5 389 1716.5 464 1831C539 1945.5 532.5 2384 285 2602.5C37.4999 2821 166 3164 201.5 3270C260.5 3383 370.5 3456.5 370.5 3505.5C391.166 3551.17 409.4 3668.6 317 3773C201.5 3903.5 54.9999 4240 230 4388C405 4536 667.5 4685.5 649.5 4888.5C631.5 5091.5 -104 5396.5 13.9999 5626" stroke="#E03F3F" stroke-opacity="0.5" stroke-width="2" stroke-dasharray="4 4"/>
</svg>