<svg xmlns="http://www.w3.org/2000/svg" width="79" height="78" viewBox="0 0 79 78" fill="none">
  <g clip-path="url(#clip0_201_6750)">
    <mask id="mask0_201_6750" style="mask-type:luminance" maskUnits="userSpaceOnUse" x="0" y="0" width="79" height="78">
      <path d="M78.4568 0H0.456787V78H78.4568V0Z" fill="white"/>
    </mask>
    <g mask="url(#mask0_201_6750)">
      <path d="M28.7839 60.3047C28.7839 60.3047 25.7858 62.1279 30.8679 62.6496C36.9861 63.4296 40.245 63.3004 47.0164 61.9988C48.3773 62.8322 49.8166 63.5302 51.3137 64.0828C36.0793 70.5958 16.7987 63.6928 28.7814 60.3047H28.7839ZM26.8339 51.8393C26.8339 51.8393 23.5774 54.3133 28.6571 54.8374C35.2993 55.4882 40.5083 55.6174 49.4978 53.7966C50.372 54.6832 51.4424 55.352 52.6226 55.749C34.2585 61.2188 13.6811 56.2706 26.8339 51.8417V51.8393ZM62.7797 66.6836C62.7797 66.6836 64.993 68.5069 60.3056 69.9401C51.5794 72.5483 23.709 73.3283 15.8944 69.9401C13.1595 68.7701 18.3684 67.0761 20.0381 66.8153C21.7322 66.4253 22.6463 66.4253 22.6463 66.4253C19.6481 64.3412 2.71971 70.7226 14.0516 72.5434C45.1785 77.6231 70.8356 70.3301 62.7602 66.6836H62.7797ZM30.1928 42.9814C30.1928 42.9814 15.9968 46.3695 25.113 47.5395C29.0203 48.0611 36.7033 47.9295 43.8671 47.4103C49.7269 46.8887 55.5915 45.8503 55.5915 45.8503C55.5915 45.8503 53.5074 46.7619 52.0742 47.6736C37.6198 51.4517 9.87621 49.7576 17.8224 45.8503C24.5938 42.5938 30.1952 42.9863 30.1952 42.9863L30.1928 42.9814ZM55.5915 57.1774C70.1775 49.6211 63.4061 42.333 58.7164 43.2422C57.5464 43.503 57.0223 43.7638 57.0223 43.7638C57.0223 43.7638 57.4123 42.9838 58.3239 42.723C67.5718 39.4665 74.8648 52.4901 55.3258 57.5674C55.3258 57.5674 55.455 57.4382 55.5866 57.1774H55.5915ZM31.6309 77.7548C45.6953 78.6664 67.1867 77.2331 67.7059 70.5885C67.7059 70.5885 66.6651 73.1966 56.1156 75.1466C44.1328 77.3599 29.286 77.0966 20.5598 75.6683C20.5598 75.6683 22.383 77.2283 31.6309 77.7523V77.7548Z" fill="#4E7896"/>
      <path d="M46.7598 0.00195312C46.7598 0.00195312 54.8353 8.20658 39.0768 20.5793C26.4433 30.6072 36.2128 36.3378 39.0768 42.8508C31.6522 36.2086 26.3141 30.3464 29.9606 24.8791C35.2987 16.8012 50.0163 12.9183 46.7598 0.00195312ZM42.6161 37.381C46.3942 41.6783 41.5753 45.5856 41.5753 45.5856C41.5753 45.5856 51.2131 40.6375 46.7842 34.5145C42.7477 28.6548 39.6179 25.7883 56.5513 16.0212C56.5513 16.0212 29.8533 22.6634 42.6161 37.381Z" fill="#F58219"/>
    </g>
  </g>
  <defs>
    <clipPath id="clip0_201_6750">
      <rect width="78" height="78" fill="white" transform="translate(0.456787)"/>
    </clipPath>
  </defs>
</svg>