<svg xmlns="http://www.w3.org/2000/svg" width="79" height="76" viewBox="0 0 79 76" fill="none">
  <g clip-path="url(#clip0_201_6757)">
    <path d="M27.6675 28.4371C30.4599 36.9763 31.5178 52.2095 39.6833 52.2095C40.305 52.2095 40.9331 52.1487 41.5636 52.0288C34.1408 50.298 33.2611 35.2306 28.7316 27.4277C28.3765 27.7505 28.0239 28.0869 27.6675 28.4371Z" fill="url(#paint0_linear_201_6757)"/>
    <path d="M28.7339 27.4277C33.2634 35.2305 34.1431 50.298 41.5659 52.0287C42.149 51.9215 42.7334 51.7595 43.3191 51.5552C36.6564 48.2905 34.8147 33.6593 29.671 26.6152C29.3594 26.8745 29.0467 27.1462 28.7339 27.4277Z" fill="url(#paint1_linear_201_6757)"/>
    <path d="M35.2594 22.7871C34.6389 22.7871 34.0095 22.8479 33.3778 22.9678C31.7256 23.2793 30.0472 23.9908 28.355 25.0674C28.8173 25.5235 29.2571 26.0455 29.6708 26.615C31.3916 25.187 33.1012 24.1316 34.8046 23.4974C35.4438 23.2606 36.0806 23.0825 36.7198 22.9653C36.2587 22.8481 35.7728 22.7871 35.2594 22.7871Z" fill="#14559A"/>
    <path d="M48.5187 48.5449C49.2003 48.003 49.8832 47.4035 50.5672 46.7494C47.73 38.25 46.7144 22.7988 38.4917 22.7988C37.9035 22.7988 37.3104 22.8537 36.7185 22.9633C44.2086 24.8262 45.1681 41.1222 48.5187 48.5449Z" fill="url(#paint2_linear_201_6757)"/>
    <path d="M36.7179 22.9633C36.2569 22.8461 35.771 22.7852 35.2576 22.7852L38.4911 22.797C37.9029 22.797 37.3098 22.8523 36.7179 22.9633Z" fill="#3092C4"/>
    <path d="M48.3739 50.3514C48.0524 50.0449 47.7471 49.7085 47.4468 49.3496C46.0637 50.329 44.6855 51.0717 43.3162 51.5551C43.8033 51.7932 44.3142 51.9701 44.8563 52.0798C45.2761 52.1655 45.7111 52.2094 46.1683 52.2094C47.7048 52.2094 48.9196 52.0275 49.9539 51.5315C49.3845 51.2237 48.8623 50.8249 48.3739 50.3514Z" fill="#1969BC"/>
    <path d="M34.8042 23.4975C41.513 27.0064 42.0962 42.8962 47.4493 49.3483C47.8081 49.0954 48.1633 48.8274 48.5184 48.5445C45.1677 41.1218 44.2095 24.8245 36.7207 22.9629C36.0815 23.0825 35.4435 23.2596 34.8042 23.4975Z" fill="url(#paint3_linear_201_6757)"/>
    <path d="M29.6675 26.6144C34.8112 33.6584 36.6529 48.2897 43.3156 51.5544C44.685 51.0709 46.0632 50.3282 47.4463 49.3488C42.0932 42.8967 41.5101 27.0069 34.8013 23.498C33.0979 24.131 31.3883 25.1864 29.6675 26.6144Z" fill="url(#paint4_linear_201_6757)"/>
    <path d="M24.3791 28.2311C23.5729 30.0541 22.7493 32.4502 21.7537 35.5779C23.7336 32.7879 25.7074 30.3842 27.67 28.4366C27.3996 27.6055 27.1092 26.8393 26.7965 26.1562C25.994 26.7707 25.1853 27.4623 24.3791 28.2311Z" fill="url(#paint5_linear_201_6757)"/>
    <path d="M27.5104 25.6309C27.2736 25.8003 27.0357 25.9736 26.7964 26.1567C27.1091 26.8395 27.3982 27.6059 27.6687 28.437C28.0249 28.0881 28.3788 27.7504 28.7327 27.4277C28.3527 26.7747 27.949 26.1716 27.5104 25.6309Z" fill="#2B74B1"/>
    <path d="M28.3563 25.0664C28.0747 25.2446 27.7944 25.4327 27.5115 25.6296C27.9501 26.1704 28.3538 26.7735 28.7351 27.4277C29.0479 27.1448 29.3606 26.872 29.6721 26.614C29.2584 26.0446 28.8186 25.5225 28.3563 25.0664Z" fill="#125A9E"/>
    <path d="M74.1128 22.1362C70.3185 36.7687 62.3936 48.5215 55.7496 51.4847H55.737C55.6162 51.5395 55.4965 51.5894 55.3782 51.6379C55.3619 51.6478 55.3471 51.649 55.3345 51.6549C55.2996 51.669 55.2672 51.6799 55.2323 51.6938C55.216 51.7037 55.2012 51.7069 55.1863 51.7128C55.1302 51.7328 55.0754 51.7497 55.0205 51.7716C54.9968 51.7815 54.9745 51.7877 54.9519 51.7956C54.927 51.8054 54.8983 51.8146 54.8697 51.8225C54.8448 51.8324 54.8187 51.8395 54.7899 51.8504C54.7662 51.8603 54.7413 51.8645 54.719 51.8743C54.6703 51.8884 54.6256 51.9003 54.5769 51.9172C54.5569 51.9172 54.5383 51.928 54.5171 51.9332C54.4872 51.9431 54.4535 51.9503 54.4211 51.9591C54.3987 51.969 54.38 51.9722 54.3563 51.9772C54.3226 51.987 54.2852 51.9962 54.2516 52.0041C54.2068 52.014 54.1669 52.0231 54.1245 52.032C54.4248 52.1429 54.7376 52.199 55.0753 52.199C61.3754 52.199 67.7277 40.9085 78.2383 22.1328H74.1113L74.1128 22.1362Z" fill="url(#paint6_linear_201_6757)"/>
    <path d="M20.3836 23.3794C20.3876 23.3794 20.3925 23.3695 20.395 23.3695C20.3999 23.3695 20.4076 23.3695 20.41 23.3596H20.4179C20.4528 23.3478 20.4852 23.3337 20.5201 23.3207C20.529 23.3207 20.5337 23.3207 20.5401 23.3109C20.549 23.3109 20.5576 23.301 20.5663 23.2997C20.6037 23.2879 20.6411 23.2738 20.676 23.2609H20.6819C20.7654 23.236 20.8426 23.2051 20.9236 23.1762C20.935 23.1762 20.9461 23.1663 20.9597 23.1663C20.9934 23.1554 21.0283 23.1433 21.0631 23.1354C21.0794 23.1255 21.0956 23.1255 21.1105 23.1203C21.1466 23.1095 21.1816 23.0974 21.2152 23.0894C21.2302 23.0894 21.2439 23.0795 21.255 23.0786C21.3709 23.0467 21.4856 23.0168 21.6014 22.9888C21.6177 22.9888 21.6314 22.979 21.6488 22.978C21.6824 22.9681 21.7136 22.9629 21.7497 22.958C21.7648 22.9481 21.7821 22.9481 21.7996 22.9429C21.8332 22.9331 21.8656 22.9321 21.9017 22.9239H21.9254C21.9952 22.9098 22.0663 22.898 22.136 22.885H22.1784C22.212 22.8752 22.2419 22.8742 22.2756 22.868C22.2941 22.868 22.313 22.8581 22.3304 22.8581C22.3615 22.8581 22.3927 22.8483 22.4238 22.8441C22.4401 22.8441 22.4562 22.8441 22.475 22.8342C22.5484 22.8243 22.6245 22.8204 22.7017 22.8142C22.4837 22.7932 22.2594 22.7793 22.0314 22.7793C14.9363 22.7793 5.16091 35.9439 0.757324 52.9925H1.6059C3.01519 50.4792 4.28119 48.1017 5.43878 45.87C8.52278 33.7945 14.8042 25.5592 20.3841 23.3774" fill="url(#paint7_linear_201_6757)"/>
    <path d="M24.3787 28.2304C25.1849 27.4616 25.9935 26.77 26.796 26.1558C26.6129 25.7545 26.4235 25.3832 26.2203 25.043C25.5712 25.8305 24.978 26.8697 24.3787 28.2304Z" fill="#0D82CA"/>
    <path d="M24.9604 23.4797C25.4239 23.8684 25.8388 24.403 26.2189 25.0435C26.3385 24.8965 26.4594 24.7606 26.5852 24.6335C26.0582 24.1413 25.4887 23.7376 24.8706 23.4336C24.8956 23.4474 24.9205 23.4585 24.9464 23.4695C24.9464 23.4695 24.9562 23.4797 24.9604 23.4797Z" fill="#0D82CA"/>
    <path d="M5.43726 45.8716C11.9068 33.4047 14.9721 25.5146 20.3825 23.3789C14.8039 25.5621 8.52126 33.7973 5.43726 45.8716Z" fill="url(#paint8_linear_201_6757)"/>
    <path d="M26.5848 24.6328C26.459 24.7612 26.3394 24.8958 26.2185 25.0428C26.4216 25.3829 26.611 25.7531 26.7955 26.1555C27.0347 25.9724 27.2727 25.7991 27.5094 25.6297C27.2166 25.2683 26.9076 24.9332 26.5848 24.6328Z" fill="#127BCA"/>
    <path d="M8.37731 52.9386C8.33743 52.9484 8.29756 52.9484 8.26017 52.9526H8.23774C8.20404 52.9526 8.16915 52.9625 8.13805 52.9625H8.12181C8.04087 52.9724 7.96107 52.9724 7.88381 52.9786H7.85889C14.407 52.7953 17.4 49.5169 18.8853 44.7619C20.0142 41.1571 20.9413 38.1204 21.7538 35.5723C19.0112 39.4326 16.2561 44.0342 13.4861 49.1892C12.1504 51.6739 10.1192 52.7118 8.37725 52.9337" fill="url(#paint9_linear_201_6757)"/>
    <path d="M8.37476 52.9367C10.1167 52.7148 12.1478 51.6781 13.4836 49.1922C16.2536 44.0385 19.0099 39.4356 21.75 35.5753C22.7468 32.4464 23.5692 30.0516 24.3767 28.2285C18.9152 33.4271 13.4325 42.0711 8.37476 52.9342" fill="url(#paint10_linear_201_6757)"/>
    <path d="M5.4381 45.873C4.28056 48.1048 3.01456 50.4823 1.60522 52.9955H4.07371C4.40018 50.4996 4.86372 48.1196 5.4381 45.8742" fill="#05A1E6"/>
    <path d="M22.4761 22.8417C22.4561 22.8417 22.4412 22.8515 22.4238 22.8515C22.3939 22.8614 22.3627 22.8614 22.3316 22.8646C22.3131 22.8646 22.2955 22.8646 22.2767 22.8745C22.2431 22.8844 22.2119 22.8854 22.1795 22.8915C22.1645 22.8915 22.1496 22.8915 22.1372 22.9014C22.0661 22.9132 21.9964 22.9263 21.9266 22.9383H21.9029C21.8668 22.9481 21.8343 22.9533 21.8007 22.9583C21.7832 22.9681 21.7658 22.9681 21.7496 22.9721C21.716 22.982 21.6823 22.9862 21.6499 22.9921C21.6324 23.002 21.6188 23.002 21.6025 23.0029C21.4867 23.0309 21.372 23.0608 21.2561 23.0927C21.2438 23.0927 21.2312 23.1025 21.2163 23.1045C21.1814 23.1144 21.1477 23.1245 21.1116 23.1354C21.0965 23.1453 21.0792 23.1453 21.0642 23.1492C21.0294 23.1591 20.9945 23.1692 20.9608 23.1801C20.9472 23.1801 20.9359 23.19 20.9234 23.19C20.8437 23.2199 20.7652 23.2498 20.683 23.2748C20.6481 23.2856 20.6107 23.2997 20.5733 23.3126C20.5583 23.3225 20.5446 23.3247 20.5272 23.3316C20.4923 23.3425 20.4575 23.3566 20.4251 23.3695C20.4127 23.3794 20.4002 23.3804 20.3915 23.3856C14.9811 25.5213 11.9158 33.4114 5.44622 45.8783C4.87179 48.1237 4.40701 50.5036 4.08179 52.9995H4.42819C5.40386 52.9995 5.67924 52.9896 6.80194 52.9896H6.85926H7.02623H7.08355H7.09979H7.15711H7.18951H7.21194H7.2568H7.39636H7.53592H7.65305H7.68415H7.88975C7.96701 52.9797 8.04675 52.9797 8.12775 52.9736H8.14271C8.1764 52.9736 8.20999 52.9637 8.24239 52.9637H8.26601C8.3021 52.9637 8.34327 52.9538 8.38314 52.9496C13.4409 42.0865 18.9236 33.4425 24.385 28.2439C24.9856 26.8832 25.5775 25.844 26.2255 25.0578C25.8467 24.4173 25.4317 23.8815 24.9682 23.4926C24.9682 23.4926 24.9556 23.4926 24.9546 23.4828C24.9284 23.4719 24.9036 23.4588 24.8774 23.4459C24.8512 23.4318 24.8287 23.421 24.8014 23.407C24.7777 23.3971 24.7503 23.3841 24.7267 23.3711C24.6943 23.3612 24.6681 23.3472 24.6395 23.3342C24.6158 23.3243 24.5946 23.3142 24.5709 23.3043C24.5222 23.2853 24.4737 23.2655 24.4276 23.2445C24.4063 23.2346 24.3865 23.2295 24.3665 23.2216C24.3329 23.2095 24.2942 23.1936 24.2593 23.1787C24.2418 23.1688 24.2219 23.1668 24.202 23.1597C24.1509 23.1427 24.1011 23.1248 24.0537 23.1088H24.0413C23.984 23.0898 23.9279 23.076 23.8694 23.06C23.8558 23.0501 23.8444 23.0501 23.8308 23.0481C23.7797 23.0341 23.7348 23.0202 23.6862 23.0073C23.6739 23.0073 23.6626 22.9974 23.6527 22.9974C23.5355 22.9665 23.4147 22.9416 23.2925 22.9186C23.28 22.9186 23.2676 22.9088 23.2552 22.9088C23.2028 22.8989 23.1518 22.8898 23.0994 22.8838C23.0868 22.874 23.0794 22.874 23.0683 22.874C23.006 22.8641 22.945 22.8569 22.8839 22.85H22.8515C22.8017 22.8402 22.7556 22.8392 22.7094 22.834C22.6309 22.8439 22.5562 22.8481 22.4827 22.855" fill="url(#paint11_linear_201_6757)"/>
    <path d="M59.2937 30.2378C58.0489 34.2252 57.0408 37.5148 56.1636 40.2212C59.579 35.5211 62.9434 29.6085 66.1471 22.7852C62.4101 23.9588 60.4164 26.6454 59.2937 30.2378Z" fill="url(#paint12_linear_201_6757)"/>
    <path d="M56.2704 51.236C56.096 51.3247 55.9215 51.4091 55.7495 51.4852C62.3935 48.522 70.3185 36.7692 74.1128 22.1367H73.3439C64.6265 37.7087 61.8229 48.1333 56.2704 51.236Z" fill="url(#paint13_linear_201_6757)"/>
    <path d="M51.9342 49.9275C53.3797 48.1631 54.5571 45.1639 56.1647 40.2207C54.3104 42.7676 52.4439 44.957 50.576 46.7426C50.576 46.7525 50.576 46.7525 50.5662 46.7586C50.9737 47.9798 51.4209 49.0576 51.9306 49.9273" fill="#079AE1"/>
    <path d="M51.9316 49.9277C51.4394 50.5284 50.9186 50.9857 50.3391 51.3246C50.2121 51.3984 50.0838 51.4679 49.9529 51.5315C50.5648 51.8616 51.2325 52.0822 51.9802 52.1707C52.0897 52.1815 52.1982 52.1916 52.3116 52.1996H52.3316C52.3825 52.1996 52.4363 52.1996 52.4911 52.2094H52.5131H52.6764H52.8521H52.907H53.0316C53.0516 52.2094 53.0724 52.2094 53.0924 52.1996C53.1312 52.1996 53.1721 52.1996 53.212 52.1897H53.2261H53.2709C53.3118 52.1897 53.3566 52.1798 53.4005 52.1756H53.4104C53.4235 52.1756 53.4373 52.1657 53.4502 52.1657C53.4961 52.1559 53.544 52.1517 53.5886 52.1448H53.6295C53.6803 52.1349 53.7329 52.1287 53.7852 52.1188H53.7951H53.8101C53.9148 52.0988 54.017 52.079 54.1203 52.0531C53.2631 51.739 52.5453 50.9989 51.9273 49.9447" fill="#1969BC"/>
    <path d="M39.6831 52.2089C40.305 52.2089 40.933 52.1481 41.5635 52.027C42.1467 51.9211 42.731 51.759 43.3167 51.5547C43.8039 51.7927 44.3148 51.9697 44.8556 52.0793C45.2755 52.1651 45.7116 52.2089 46.1689 52.2089H39.6831Z" fill="#1E5CB3"/>
    <path d="M46.1719 52.2091C47.7071 52.2091 48.9232 52.0272 49.9562 51.5312C50.568 51.8614 51.2359 52.0821 51.9835 52.1706C52.0932 52.1815 52.2017 52.1916 52.315 52.1995H52.335C52.3858 52.1995 52.4397 52.1995 52.4945 52.2094H52.5175H52.6807H46.1675L46.1719 52.2091Z" fill="#1E5CB3"/>
    <path d="M52.6831 52.208H52.8601H52.9149H53.0383C53.0593 52.208 53.0792 52.208 53.0991 52.1981C53.138 52.1981 53.1789 52.1981 53.2201 52.1882H53.2331H53.279C53.3199 52.1882 53.3647 52.1784 53.4074 52.1744H53.4182C53.4313 52.1744 53.4442 52.1645 53.4571 52.1645C53.503 52.1547 53.5508 52.1507 53.5954 52.1436C53.6105 52.1436 53.6223 52.1436 53.6382 52.1337C53.6891 52.1238 53.7417 52.1186 53.7941 52.1088H53.8039H53.819C53.9237 52.0888 54.0259 52.0689 54.1292 52.043C54.4295 52.1538 54.7423 52.21 55.0799 52.21L52.685 52.2198L52.6831 52.208Z" fill="#1D60B5"/>
    <path d="M50.5678 46.7579V46.748C49.8837 47.4022 49.2009 48.0016 48.5193 48.5436C48.1629 48.8265 47.8078 49.0943 47.449 49.3473C47.7492 49.7062 48.0546 50.0426 48.376 50.3492C48.8645 50.8226 49.3865 51.2214 49.956 51.5292C50.0856 51.4653 50.2152 51.3958 50.341 51.3223C50.9217 50.9834 51.4425 50.5261 51.9348 49.9255C51.4251 49.0558 50.9778 47.9779 50.5703 46.7567" fill="#175FAB"/>
    <path d="M70.9111 22.1367H67.6788H67.3573H67.0533H67.0415C66.8321 22.1466 66.6291 22.1538 66.4284 22.1666C66.3337 22.3698 66.2365 22.573 66.143 22.7773C62.9394 29.6006 59.5751 35.5132 56.1596 40.2134C54.5534 45.1565 53.3747 48.1558 51.9292 49.9202C52.5473 50.9744 53.2663 51.7157 54.1211 52.0297C54.146 52.0199 54.1659 52.0199 54.1883 52.0147H54.2022C54.2172 52.0147 54.2333 52.0048 54.2495 52.0048C54.2844 51.9949 54.3218 51.9888 54.3567 51.9779C54.3791 51.968 54.3978 51.9671 54.4203 51.9599C54.4527 51.95 54.4863 51.9429 54.5162 51.935C54.5362 51.9251 54.5561 51.9219 54.576 51.9179C54.6258 51.9019 54.6707 51.89 54.7181 51.8751C54.7405 51.8652 54.7642 51.857 54.7891 51.8511C54.8165 51.8412 54.8439 51.8341 54.8689 51.8222C54.8976 51.8123 54.9262 51.8072 54.9511 51.7963C54.9736 51.7864 54.9972 51.7802 55.0184 51.7714C55.0744 51.7514 55.1293 51.7345 55.1854 51.7125C55.2004 51.7125 55.2153 51.6987 55.2315 51.6955C55.2651 51.6814 55.3 51.6706 55.3337 51.6556C55.3461 51.6457 55.3611 51.6448 55.3773 51.6396C55.4944 51.5907 55.6153 51.5409 55.7361 51.4864H55.7487C55.9207 51.4106 56.0951 51.3256 56.2683 51.2372C61.822 48.1345 64.6257 37.7099 73.3431 22.1379H70.9083L70.9111 22.1367Z" fill="url(#paint14_linear_201_6757)"/>
    <path d="M22.7029 22.8203C22.7167 22.8203 22.7291 22.8203 22.7427 22.8302C22.7763 22.8302 22.81 22.8302 22.8437 22.8411H22.8774C22.9384 22.8509 22.9995 22.8561 23.0618 22.865C23.0731 22.865 23.083 22.865 23.0929 22.8749C23.1439 22.8847 23.1963 22.8929 23.2486 22.9008C23.26 22.9008 23.2749 22.9107 23.2873 22.9107C23.4069 22.9346 23.5291 22.9595 23.6462 22.9904C23.6573 22.9904 23.6686 23.0003 23.6786 23.0003C23.7284 23.0121 23.7733 23.0272 23.8231 23.0411C23.8382 23.0411 23.8492 23.051 23.863 23.0532C23.9216 23.0683 23.9764 23.0832 24.0337 23.1021C24.0362 23.1021 24.0396 23.1021 24.0463 23.112C24.0948 23.1268 24.1447 23.1459 24.1958 23.1628C24.2158 23.1727 24.2344 23.1769 24.2531 23.1818C24.288 23.1968 24.3267 23.2117 24.3603 23.2257C24.3803 23.2257 24.4002 23.2395 24.4213 23.2466C24.4673 23.2676 24.516 23.2865 24.5633 23.3064C24.5883 23.3163 24.6094 23.3274 24.6331 23.3363C24.6605 23.3504 24.6892 23.3633 24.7191 23.3732C24.744 23.3851 24.7714 23.3981 24.795 23.4091C24.8212 23.4232 24.8461 23.434 24.8711 23.448C25.4891 23.752 26.0586 24.157 26.5857 24.648C26.7801 24.4436 26.9831 24.2604 27.1937 24.0959C26.0411 23.2785 24.7353 22.8125 23.2288 22.8125C23.0543 22.8125 22.8799 22.8224 22.7029 22.8355" fill="#7DCBEC"/>
    <path d="M26.5857 24.6341C26.9084 24.9343 27.2174 25.2696 27.5103 25.6309C27.7931 25.4341 28.0735 25.2447 28.3551 25.0677C27.9863 24.6989 27.5975 24.3674 27.1925 24.082C26.9819 24.2453 26.7801 24.4297 26.5857 24.6341Z" fill="#5EC5ED"/>
    <path d="M22.7014 22.8207C22.8783 22.8058 23.0528 22.7995 23.2272 22.7995C24.7337 22.7995 26.0396 23.2656 27.1922 24.0817C28.4083 23.1223 29.8787 22.7871 31.921 22.7871H22.031C22.259 22.7871 22.4821 22.8008 22.7014 22.8207Z" fill="url(#paint15_linear_201_6757)"/>
    <path d="M31.92 22.7861C29.8777 22.7861 28.4073 23.1213 27.1912 24.0808C27.5949 24.3661 27.9836 24.6976 28.3525 25.0664C30.0459 23.9898 31.7231 23.2771 33.3766 22.9655C34.0071 22.8472 34.6364 22.7861 35.2569 22.7861H31.92Z" fill="url(#paint16_linear_201_6757)"/>
    <path d="M56.1652 40.2231C57.0437 37.5141 58.0492 34.2258 59.2965 30.2371C60.4205 26.6435 62.4105 23.957 66.1474 22.7845C66.2461 22.5838 66.3393 22.377 66.4353 22.1738C60.3433 22.539 57.496 25.6379 56.063 30.2272C53.5572 38.2393 52.0395 43.4329 50.5779 46.7425C52.4445 44.9581 54.3111 42.7675 56.1652 40.2231Z" fill="url(#paint17_linear_201_6757)"/>
    <path d="M65.1018 50.0737H64.4115V52.2195H64.1298V50.0737H63.437V49.8184H65.1018V50.0737Z" fill="black"/>
    <path d="M67.9262 52.2195H67.6459V50.607C67.6459 50.48 67.6558 50.3242 67.6689 50.141C67.6399 50.2507 67.616 50.3267 67.5941 50.3753L66.7767 52.2195H66.6396L65.8197 50.389C65.7958 50.3382 65.7719 50.2557 65.746 50.141H65.7361C65.746 50.2377 65.7492 50.394 65.7492 50.6108V52.2195H65.48V49.8184H65.8513L66.5877 51.4942C66.6435 51.6202 66.6784 51.7173 66.6962 51.7821H66.707C66.7559 51.6501 66.7957 51.5516 66.823 51.4868L67.5743 49.8184H67.9282V52.2195H67.9262Z" fill="black"/>
  </g>
  <defs>
    <linearGradient id="paint0_linear_201_6757" x1="34.6152" y1="22.5913" x2="34.6152" y2="59.5511" gradientUnits="userSpaceOnUse">
      <stop stop-color="#0994DC"/>
      <stop offset="0.350006" stop-color="#66CEF5"/>
      <stop offset="0.846161" stop-color="#127BCA"/>
      <stop offset="1" stop-color="#127BCA"/>
    </linearGradient>
    <linearGradient id="paint1_linear_201_6757" x1="36.0266" y1="21.6555" x2="36.0266" y2="59.5572" gradientUnits="userSpaceOnUse">
      <stop stop-color="#0E76BC"/>
      <stop offset="0.360001" stop-color="#36AEE8"/>
      <stop offset="0.846161" stop-color="#00ADEF"/>
      <stop offset="1" stop-color="#00ADEF"/>
    </linearGradient>
    <linearGradient id="paint2_linear_201_6757" x1="43.6428" y1="51.3569" x2="43.6428" y2="21.199" gradientUnits="userSpaceOnUse">
      <stop stop-color="#1C63B7"/>
      <stop offset="0.5" stop-color="#33BDF2"/>
      <stop offset="1" stop-color="#33BDF2" stop-opacity="0.419608"/>
    </linearGradient>
    <linearGradient id="paint3_linear_201_6757" x1="41.6614" y1="17.8138" x2="41.6614" y2="57.1656" gradientUnits="userSpaceOnUse">
      <stop stop-color="#166AB8"/>
      <stop offset="0.399994" stop-color="#36AEE8"/>
      <stop offset="0.846161" stop-color="#0798DD"/>
      <stop offset="1" stop-color="#0798DD"/>
    </linearGradient>
    <linearGradient id="paint4_linear_201_6757" x1="38.5567" y1="18.0211" x2="38.5567" y2="59.8667" gradientUnits="userSpaceOnUse">
      <stop stop-color="#124379"/>
      <stop offset="0.389999" stop-color="#1487CB"/>
      <stop offset="0.780228" stop-color="#165197"/>
      <stop offset="1" stop-color="#165197"/>
    </linearGradient>
    <linearGradient id="paint5_linear_201_6757" x1="21.7537" y1="30.8672" x2="27.67" y2="30.8672" gradientUnits="userSpaceOnUse">
      <stop stop-color="#33BDF2" stop-opacity="0.698039"/>
      <stop offset="1" stop-color="#1DACD8"/>
    </linearGradient>
    <linearGradient id="paint6_linear_201_6757" x1="66.1837" y1="50.6014" x2="66.1837" y2="21.2234" gradientUnits="userSpaceOnUse">
      <stop stop-color="#136AB4"/>
      <stop offset="0.6" stop-color="#59CAF5" stop-opacity="0.54902"/>
      <stop offset="1" stop-color="#59CAF5" stop-opacity="0.235294"/>
    </linearGradient>
    <linearGradient id="paint7_linear_201_6757" x1="0.757157" y1="37.8858" x2="22.7016" y2="37.8858" gradientUnits="userSpaceOnUse">
      <stop stop-color="#05A1E6" stop-opacity="0.247059"/>
      <stop offset="1" stop-color="#05A1E6"/>
    </linearGradient>
    <linearGradient id="paint8_linear_201_6757" x1="12.9096" y1="51.3404" x2="12.9096" y2="21.2598" gradientUnits="userSpaceOnUse">
      <stop stop-color="#318ED5"/>
      <stop offset="1" stop-color="#38A7E4"/>
    </linearGradient>
    <linearGradient id="paint9_linear_201_6757" x1="14.8061" y1="51.4468" x2="14.8061" y2="22.2068" gradientUnits="userSpaceOnUse">
      <stop stop-color="#05A1E6"/>
      <stop offset="1" stop-color="#05A1E6" stop-opacity="0.54902"/>
    </linearGradient>
    <linearGradient id="paint10_linear_201_6757" x1="16.3757" y1="52.9393" x2="16.3757" y2="28.231" gradientUnits="userSpaceOnUse">
      <stop stop-color="#1959A6"/>
      <stop offset="0.5" stop-color="#05A1E6"/>
      <stop offset="0.917587" stop-color="#7EC5EA"/>
      <stop offset="1" stop-color="#7EC5EA"/>
    </linearGradient>
    <linearGradient id="paint11_linear_201_6757" x1="17.3246" y1="51.3608" x2="8.94918" y2="25.7649" gradientUnits="userSpaceOnUse">
      <stop stop-color="#165096"/>
      <stop offset="1" stop-color="#0D82CA"/>
    </linearGradient>
    <linearGradient id="paint12_linear_201_6757" x1="61.1548" y1="36.2106" x2="61.1548" y2="22.21" gradientUnits="userSpaceOnUse">
      <stop stop-color="#05A1E6"/>
      <stop offset="0.873627" stop-color="#0495D6"/>
      <stop offset="1" stop-color="#0495D6"/>
    </linearGradient>
    <linearGradient id="paint13_linear_201_6757" x1="67.734" y1="20.9154" x2="54.6854" y2="49.8871" gradientUnits="userSpaceOnUse">
      <stop stop-color="#38A7E4" stop-opacity="0.329412"/>
      <stop offset="0.961533" stop-color="#0E88D3"/>
      <stop offset="1" stop-color="#0E88D3"/>
    </linearGradient>
    <linearGradient id="paint14_linear_201_6757" x1="62.6398" y1="22.0483" x2="62.6398" y2="52.5923" gradientUnits="userSpaceOnUse">
      <stop stop-color="#168CD4"/>
      <stop offset="0.5" stop-color="#1C87CC"/>
      <stop offset="1" stop-color="#154B8D"/>
    </linearGradient>
    <linearGradient id="paint15_linear_201_6757" x1="23.68" y1="21.4204" x2="23.8124" y2="24.6238" gradientUnits="userSpaceOnUse">
      <stop stop-color="#97D6EE"/>
      <stop offset="0.703293" stop-color="#55C1EA"/>
      <stop offset="1" stop-color="#55C1EA"/>
    </linearGradient>
    <linearGradient id="paint16_linear_201_6757" x1="27.7469" y1="24.9227" x2="28.3452" y2="21.5295" gradientUnits="userSpaceOnUse">
      <stop stop-color="#7ACCEC"/>
      <stop offset="1" stop-color="#3FB7ED"/>
    </linearGradient>
    <linearGradient id="paint17_linear_201_6757" x1="58.5061" y1="23.7371" x2="58.5061" y2="53.6122" gradientUnits="userSpaceOnUse">
      <stop stop-color="#1DA7E7"/>
      <stop offset="1" stop-color="#37ABE7" stop-opacity="0"/>
    </linearGradient>
    <clipPath id="clip0_201_6757">
      <rect width="78" height="75" fill="white" transform="translate(0.456787 0.5)"/>
    </clipPath>
  </defs>
</svg>